<svg width="18" height="18" viewBox="0 0 18 18" fill="none" xmlns="http://www.w3.org/2000/svg">
<rect width="18" height="18" rx="9" fill="white"/>
<path d="M7.24245 5.41423C7.04839 5.45641 6.91761 5.57173 6.86277 5.7686C6.8023 5.98375 6.86839 6.16234 7.02167 6.31422C7.61229 6.90343 8.20432 7.49124 8.79634 8.07904C9.09165 8.37435 9.38555 8.67247 9.71039 8.99872L7.01886 11.6903C6.79386 11.9153 6.78121 12.2359 6.97948 12.444C7.17776 12.6521 7.51385 12.6549 7.73463 12.4356C8.75556 11.4203 9.77508 10.4007 10.7904 9.37981C11.0112 9.15763 11.0168 8.84544 10.7988 8.62748C9.7793 7.60092 8.75697 6.57859 7.73182 5.55907C7.59682 5.42548 7.43089 5.37204 7.24245 5.41423Z" fill="#1E293B"/>
</svg>
