<svg width="31" height="30" viewBox="0 0 31 30" fill="none" xmlns="http://www.w3.org/2000/svg">
<rect x="0.164062" width="30" height="30" rx="15" fill="#F59E0B"/>
<path d="M19.0817 10.3449C18.8988 10.1587 18.6555 10.0562 18.3967 10.0562H17.9671V10.4937C17.9671 10.9761 17.581 11.3687 17.1065 11.3687H13.2339C12.7594 11.3687 12.3733 10.9761 12.3733 10.4937V10.0562H11.9423C11.4091 10.0562 10.9748 10.4972 10.9741 11.0394L10.9648 19.6144C10.9645 19.8776 11.0651 20.125 11.248 20.3112C11.4309 20.4974 11.6742 20.5999 11.933 20.5999H18.3874C18.9206 20.5999 19.3549 20.1588 19.3555 19.6166L19.3648 11.0416C19.3651 10.7785 19.2646 10.531 19.0817 10.3449ZM15.2746 13.3374H17.5674C17.7456 13.3374 17.8901 13.4843 17.8901 13.6655C17.8901 13.8467 17.7456 13.9937 17.5674 13.9937H15.2746C15.0963 13.9937 14.9518 13.8467 14.9518 13.6655C14.9518 13.4843 15.0963 13.3374 15.2746 13.3374ZM15.2746 15.5249H17.5674C17.7456 15.5249 17.8901 15.6718 17.8901 15.853C17.8901 16.0342 17.7456 16.1812 17.5674 16.1812H15.2746C15.0963 16.1812 14.9518 16.0342 14.9518 15.853C14.9518 15.6718 15.0963 15.5249 15.2746 15.5249ZM15.2746 17.7124H17.5766C17.7548 17.7124 17.8993 17.8593 17.8993 18.0405C17.8993 18.2217 17.7548 18.3687 17.5766 18.3687H15.2746C15.0963 18.3687 14.9518 18.2217 14.9518 18.0405C14.9518 17.8593 15.0963 17.7124 15.2746 17.7124ZM12.5249 13.3504C12.6509 13.2222 12.8553 13.2222 12.9813 13.3504L13.1568 13.5288L13.901 12.7721C14.0271 12.644 14.2314 12.6439 14.3574 12.7721C14.4834 12.9002 14.4834 13.108 14.3574 13.2361L13.3849 14.2248C13.355 14.2553 13.3194 14.2795 13.2803 14.296C13.2411 14.3124 13.1991 14.3209 13.1567 14.3209C13.1144 14.3209 13.0724 14.3124 13.0332 14.296C12.9941 14.2795 12.9585 14.2553 12.9285 14.2248L12.5249 13.8144C12.3989 13.6862 12.3989 13.4785 12.5249 13.3504ZM12.5249 15.7049C12.6509 15.5768 12.8553 15.5768 12.9813 15.7049L13.1568 15.8833L13.901 15.1266C14.027 14.9985 14.2314 14.9985 14.3574 15.1266C14.4834 15.2547 14.4834 15.4625 14.3574 15.5907L13.3849 16.5794C13.355 16.6098 13.3194 16.634 13.2803 16.6505C13.2411 16.667 13.1991 16.6755 13.1567 16.6755C13.1144 16.6755 13.0724 16.667 13.0332 16.6505C12.9941 16.634 12.9585 16.6098 12.9285 16.5794L12.5249 16.1689C12.3989 16.0408 12.3989 15.8331 12.5249 15.7049ZM12.5249 17.8924C12.6509 17.7643 12.8553 17.7643 12.9813 17.8924L13.1568 18.0708L13.901 17.3141C14.027 17.186 14.2314 17.186 14.3574 17.3141C14.4834 17.4422 14.4834 17.65 14.3574 17.7782L13.3849 18.7669C13.355 18.7973 13.3194 18.8215 13.2803 18.838C13.2411 18.8545 13.1991 18.863 13.1567 18.863C13.1144 18.863 13.0724 18.8545 13.0332 18.838C12.9941 18.8215 12.9585 18.7973 12.9285 18.7669L12.5249 18.3564C12.3989 18.2283 12.3989 18.0206 12.5249 17.8924Z" fill="#FFF9E6"/>
<path d="M13.0195 10.4937C13.0195 10.6145 13.1159 10.7124 13.2347 10.7124H17.1073C17.2261 10.7124 17.3224 10.6145 17.3224 10.4937V9.61865C17.3224 9.49784 17.2261 9.3999 17.1073 9.3999H13.2347C13.1159 9.3999 13.0195 9.49784 13.0195 9.61865V10.4937Z" fill="#FFF9E6"/>
</svg>
