<svg width="40" height="40" viewBox="0 0 40 40" fill="none" xmlns="http://www.w3.org/2000/svg">
<rect width="40" height="40" rx="5" fill="#F59E0B"/>
<path d="M25.5954 13.3499C25.3342 13.084 24.9866 12.9375 24.6169 12.9375H24.0032V13.5625C24.0032 14.2517 23.4517 14.8125 22.7738 14.8125H17.2415C16.5636 14.8125 16.0121 14.2517 16.0121 13.5625V12.9375H15.3964C14.6346 12.9375 14.0142 13.5676 14.0133 14.3422L14 26.5922C13.9996 26.9681 14.1433 27.3216 14.4045 27.5876C14.6658 27.8535 15.0134 28 15.3831 28H24.6036C25.3654 28 25.9858 27.3699 25.9867 26.5953L26 14.3453C26.0004 13.9694 25.8567 13.6159 25.5954 13.3499ZM20.1567 17.625H23.4322C23.6868 17.625 23.8932 17.8349 23.8932 18.0938C23.8932 18.3526 23.6868 18.5625 23.4322 18.5625H20.1567C19.9021 18.5625 19.6957 18.3526 19.6957 18.0938C19.6957 17.8349 19.9021 17.625 20.1567 17.625ZM20.1567 20.75H23.4322C23.6868 20.75 23.8932 20.9599 23.8932 21.2188C23.8932 21.4776 23.6868 21.6875 23.4322 21.6875H20.1567C19.9021 21.6875 19.6957 21.4776 19.6957 21.2188C19.6957 20.9599 19.9021 20.75 20.1567 20.75ZM20.1567 23.875H23.4454C23.7 23.875 23.9064 24.0849 23.9064 24.3438C23.9064 24.6026 23.7 24.8125 23.4454 24.8125H20.1567C19.9021 24.8125 19.6957 24.6026 19.6957 24.3438C19.6957 24.0849 19.9021 23.875 20.1567 23.875ZM16.2286 17.6435C16.4087 17.4604 16.7006 17.4604 16.8806 17.6435L17.1313 17.8984L18.1945 16.8174C18.3746 16.6344 18.6665 16.6343 18.8465 16.8174C19.0265 17.0004 19.0265 17.2972 18.8465 17.4803L17.4573 18.8927C17.4145 18.9363 17.3637 18.9708 17.3078 18.9944C17.2518 19.0179 17.1918 19.03 17.1313 19.03C17.0707 19.03 17.0108 19.0179 16.9548 18.9944C16.8989 18.9708 16.8481 18.9363 16.8053 18.8927L16.2286 18.3064C16.0486 18.1233 16.0486 17.8265 16.2286 17.6435ZM16.2286 21.0072C16.4087 20.8241 16.7006 20.8241 16.8806 21.0072L17.1313 21.262L18.1945 20.181C18.3746 19.998 18.6665 19.998 18.8465 20.181C19.0265 20.3641 19.0265 20.6609 18.8465 20.8439L17.4573 22.2564C17.4145 22.2999 17.3637 22.3344 17.3077 22.358C17.2518 22.3816 17.1918 22.3937 17.1313 22.3937C17.0707 22.3937 17.0108 22.3816 16.9548 22.358C16.8989 22.3344 16.8481 22.2999 16.8053 22.2564L16.2286 21.67C16.0486 21.487 16.0486 21.1902 16.2286 21.0072ZM16.2286 24.1322C16.4087 23.9491 16.7006 23.9491 16.8806 24.1322L17.1313 24.387L18.1945 23.306C18.3746 23.123 18.6665 23.123 18.8465 23.306C19.0265 23.4891 19.0265 23.7859 18.8465 23.9689L17.4573 25.3814C17.4145 25.4249 17.3637 25.4594 17.3077 25.483C17.2518 25.5066 17.1918 25.5187 17.1313 25.5187C17.0707 25.5187 17.0108 25.5066 16.9548 25.483C16.8989 25.4594 16.8481 25.4249 16.8053 25.3814L16.2286 24.795C16.0486 24.612 16.0486 24.3152 16.2286 24.1322Z" fill="white"/>
<path d="M16.9336 13.5625C16.9336 13.7351 17.0712 13.875 17.2409 13.875H22.7733C22.943 13.875 23.0806 13.7351 23.0806 13.5625V12.3125C23.0806 12.1399 22.943 12 22.7733 12H17.2409C17.0712 12 16.9336 12.1399 16.9336 12.3125V13.5625Z" fill="white"/>
</svg>
