<svg width="31" height="30" viewBox="0 0 31 30" fill="none" xmlns="http://www.w3.org/2000/svg">
<rect x="0.832031" width="30" height="30" rx="15" fill="#16A34A"/>
<path fill-rule="evenodd" clip-rule="evenodd" d="M11.3971 10.5573H13.0681V9.6382C13.0681 9.50695 13.1752 9.3999 13.3064 9.3999H13.8436C13.9748 9.3999 14.0819 9.50695 14.0819 9.6382V10.5573H17.5791V9.6382C17.5791 9.50695 17.6861 9.3999 17.8174 9.3999H18.3545C18.4858 9.3999 18.5928 9.50695 18.5928 9.6382V10.5573H20.2638C20.9064 10.5573 21.4305 11.0814 21.4305 11.724V12.4715H10.2305V11.724C10.2305 11.0814 10.7546 10.5573 11.3971 10.5573ZM21.4305 13.0434V19.4332C21.4305 20.0758 20.9064 20.5999 20.2638 20.5999H11.3971C10.7546 20.5999 10.2305 20.0758 10.2305 19.4332V13.0434H21.4305ZM12.0958 14.4379V15.8851H13.543V14.4379H12.0958ZM12.0958 17.4723V18.9195H13.543V17.4723H12.0958ZM18.118 17.4723V18.9195H19.5652V17.4723H18.118ZM15.1069 17.4723V18.9195H16.5541V17.4723H15.1069ZM18.118 14.4379V15.8851H19.5652V14.4379H18.118ZM15.1069 14.4379V15.8851H16.5541V14.4379H15.1069Z" fill="#E9FDF0"/>
</svg>
