<svg width="30" height="30" viewBox="0 0 30 30" fill="none" xmlns="http://www.w3.org/2000/svg">
<rect width="30" height="30" rx="4" fill="#F6F6F6"/>
<path d="M13.625 9H9.87497C9.39248 9 9 9.39248 9 9.87497V12.125C9 12.6075 9.39248 13 9.87497 13H13.625C14.1075 13 14.5 12.6075 14.5 12.125V9.87497C14.5 9.39248 14.1075 9 13.625 9ZM13.625 14H9.87497C9.39248 14 9 14.3925 9 14.875V20.125C9 20.6075 9.39248 21 9.87497 21H13.625C14.1075 21 14.5 20.6075 14.5 20.125V14.875C14.5 14.3925 14.1075 14 13.625 14ZM20.125 17H16.375C15.8925 17 15.5 17.3925 15.5 17.875V20.125C15.5 20.6075 15.8925 21 16.375 21H20.125C20.6075 21 21 20.6075 21 20.125V17.875C21 17.3925 20.6075 17 20.125 17ZM20.125 9H16.375C15.8925 9 15.5 9.39248 15.5 9.87497V15.125C15.5 15.6075 15.8925 16 16.375 16H20.125C20.6075 16 21 15.6075 21 15.125V9.87497C21 9.39248 20.6075 9 20.125 9Z" fill="black"/>
</svg>
