<svg width="160" height="60" viewBox="0 0 160 60" fill="none" xmlns="http://www.w3.org/2000/svg">
<g clip-path="url(#clip0_86_684)">
<path d="M155.375 55.8211L156.558 58.0729C155.6 58.8543 154.408 59.2859 153.176 59.2976C150.547 59.2976 148.709 57.3776 148.709 54.6317V44.5658H146.149V41.7847H148.709V37.0835H151.895V41.7847H155.9V44.5658H151.895V54.3988C151.895 55.5917 152.682 56.4494 153.645 56.4494C154.279 56.4659 154.897 56.2417 155.375 55.8211Z" fill="#EB6319"/>
<path d="M151.849 19.3515L149.749 22.5068C148.936 23.7245 148.022 23.4633 147.329 23.6151L149.812 20.0362C148.873 19.0868 147.459 18.6562 146.006 18.2715L146.149 17.3574C148.278 17.5551 150.228 18.1233 151.849 19.3515Z" fill="#126F77"/>
<path d="M158.747 19.292C155.007 32.7038 144.865 32.7814 132.233 34.1155C136.581 35.0438 141.868 35.2414 147.287 34.7543C144.037 36.8143 140.384 38.1436 136.578 38.6515C132.771 39.1595 128.901 38.8342 125.231 37.6979C127.822 37.5215 130.383 37.0273 132.856 36.2261C124.387 36.3743 119.457 36.7273 113.516 30.2579C121.334 31.6696 129.593 31.9449 135.818 30.999C126.197 30.0214 110.477 30.2685 107.417 19.292C114.847 24.8304 123.843 27.8194 133.084 27.8194C142.324 27.8194 151.32 24.8304 158.75 19.292H158.747Z" fill="#126F77"/>
<path d="M145.846 13.4435L144.095 23.6188C143.899 24.7447 143.461 24.9176 142.481 25.2811L144.151 14.9647C143.556 14.5835 141.665 14.8623 140.545 15.0247C141.896 13.987 143.377 13.3764 145.846 13.4435Z" fill="#126F77"/>
<path d="M144.595 42.6667L143.152 45.0844C141.51 44.0573 139.802 43.4962 138.324 43.4962C136.651 43.4962 135.334 44.2232 135.334 45.515C135.334 46.8067 136.385 47.2373 139.245 48.1303C142.046 48.9597 145.022 49.895 145.022 53.2938C145.022 56.5409 142.298 58.5879 138.587 58.5879C135.955 58.5708 133.402 57.6747 131.329 56.0397L132.873 53.6891C134.68 55.0126 136.616 55.775 138.618 55.775C140.523 55.775 141.839 54.882 141.839 53.555C141.839 51.9667 140.089 51.4691 137.988 50.8762C134.081 49.782 132.141 48.6562 132.141 45.875C132.11 42.7303 134.704 40.6797 138.317 40.6797C140.556 40.7173 142.736 41.4075 144.595 42.6667Z" fill="#EB6319"/>
<path d="M142.684 16.2104L142.512 17.4952C140.583 17.5906 138.669 17.8899 136.802 18.3881C138.5 17.0808 140.55 16.3217 142.684 16.2104Z" fill="#126F77"/>
<path d="M142.183 19.5068L142.011 20.7915C140.082 20.8853 138.168 21.1846 136.301 21.6845C137.998 20.3758 140.049 19.6165 142.183 19.5068Z" fill="#126F77"/>
<path d="M141.686 22.8032L141.514 24.0879C139.585 24.1812 137.67 24.4805 135.804 24.9809C137.5 23.6716 139.551 22.9122 141.686 22.8032Z" fill="#126F77"/>
<path d="M133.759 6.60742C135.086 12.5368 140.362 12.7168 142.438 12.2298C138.723 14.1498 135.751 17.2309 133.759 21.8227V6.60742Z" fill="#EC631A"/>
<path d="M138.637 10.7365C139.714 10.7365 140.587 9.8563 140.587 8.77057C140.587 7.68485 139.714 6.80469 138.637 6.80469C137.56 6.80469 136.687 7.68485 136.687 8.77057C136.687 9.8563 137.56 10.7365 138.637 10.7365Z" fill="#126F77"/>
<path d="M135.752 2.2098L134.096 3.41685L134.733 5.37215L133.081 4.15803L131.431 5.37215L132.065 3.41685L130.409 2.2098L132.454 2.21333L133.081 0.250977L133.707 2.21333L135.752 2.2098Z" fill="#126F77"/>
<path d="M132.401 6.60742V21.8227C130.409 17.2345 127.436 14.1498 123.722 12.2298C125.798 12.7062 131.074 12.5368 132.401 6.60742Z" fill="#EC631A"/>
<path d="M130.363 50.7773H116.996C117.423 53.6256 119.492 55.6797 122.416 55.6797C124.191 55.6797 126.267 54.8856 127.275 53.8232L129.313 55.9409C127.8 57.5609 124.845 58.5879 122.447 58.5879C117.721 58.5879 113.712 54.8467 113.712 49.5844C113.712 44.4526 117.49 40.6797 122.185 40.6797C127.373 40.6832 130.363 44.6538 130.363 50.7773ZM117.031 48.162H127.209C126.859 45.515 125.241 43.595 122.307 43.595C119.692 43.595 117.556 45.3809 117.031 48.162Z" fill="#EB6319"/>
<path d="M127.523 10.7365C128.6 10.7365 129.473 9.8563 129.473 8.77057C129.473 7.68485 128.6 6.80469 127.523 6.80469C126.446 6.80469 125.573 7.68485 125.573 8.77057C125.573 9.8563 126.446 10.7365 127.523 10.7365Z" fill="#126F77"/>
<path d="M123.978 19.9658C126.111 20.0755 128.162 20.8348 129.859 22.1435C127.993 21.6436 126.078 21.3442 124.149 21.2505L123.978 19.9658Z" fill="#126F77"/>
<path d="M123.978 22.6836C126.111 22.7933 128.162 23.5525 129.859 24.8612C127.993 24.3613 126.078 24.062 124.149 23.9683L123.978 22.6836Z" fill="#126F77"/>
<path d="M123.477 16.2104C125.61 16.3217 127.661 17.0808 129.358 18.3881C127.491 17.8894 125.577 17.5901 123.648 17.4952L123.477 16.2104Z" fill="#126F77"/>
<path d="M122.027 14.9647L123.694 25.2811C122.713 24.9282 122.276 24.7447 122.08 23.6188L120.329 13.4435C122.797 13.3764 124.282 13.987 125.644 15.0247C124.509 14.8623 122.619 14.5835 122.027 14.9647Z" fill="#126F77"/>
<path d="M120.014 17.354L120.158 18.2681C118.705 18.6564 117.294 19.0869 116.352 20.0328L118.834 23.6116C118.134 23.4599 117.227 23.7211 116.415 22.5034L114.314 19.3481C115.932 18.1234 117.882 17.5552 120.014 17.354Z" fill="#126F77"/>
<path d="M112.277 35.5659V58.3094H108.958L95.9864 41.0612V58.3094H92.6709V35.5659H95.9864L108.958 52.8142V35.5659H112.277Z" fill="#EB6319"/>
<path d="M12.4288 58H2.63477V32.5455H12.3294C14.9477 32.5455 17.2098 33.055 19.1156 34.0742C21.0297 35.0851 22.5046 36.5434 23.5403 38.4492C24.5843 40.3467 25.1064 42.6212 25.1064 45.2727C25.1064 47.9242 24.5885 50.2029 23.5527 52.1087C22.517 54.0062 21.0504 55.4645 19.1529 56.4837C17.2554 57.4946 15.014 58 12.4288 58ZM9.54528 52.1335H12.1802C13.4397 52.1335 14.5127 51.9305 15.3993 51.5245C16.2942 51.1185 16.9737 50.4183 17.4377 49.424C17.91 48.4297 18.1461 47.0459 18.1461 45.2727C18.1461 43.4995 17.9058 42.1158 17.4252 41.1214C16.9529 40.1271 16.2569 39.427 15.3372 39.021C14.4257 38.6149 13.3071 38.4119 11.9814 38.4119H9.54528V52.1335ZM37.5509 58.348C35.5125 58.348 33.7559 57.9586 32.281 57.1797C30.8144 56.3925 29.6833 55.2656 28.8879 53.799C28.1007 52.3241 27.7071 50.5592 27.7071 48.5043C27.7071 46.5322 28.1048 44.8087 28.9003 43.3338C29.6958 41.8589 30.8185 40.7113 32.2686 39.891C33.7186 39.0707 35.4297 38.6605 37.4017 38.6605C38.8435 38.6605 40.1485 38.8842 41.3169 39.3317C42.4852 39.7791 43.4836 40.4296 44.3122 41.283C45.1408 42.1282 45.7789 43.1557 46.2263 44.3654C46.6737 45.5752 46.8975 46.9382 46.8975 48.4545V50.0455H29.8449V46.267H40.5835C40.5753 45.7202 40.4344 45.2396 40.161 44.8253C39.8958 44.4027 39.5354 44.0754 39.0796 43.8434C38.6322 43.6031 38.1226 43.483 37.5509 43.483C36.9957 43.483 36.4861 43.6031 36.0221 43.8434C35.5581 44.0754 35.1852 44.3986 34.9035 44.8129C34.6301 45.2272 34.4851 45.7119 34.4685 46.267V50.3438C34.4685 50.9569 34.5969 51.5038 34.8538 51.9844C35.1106 52.465 35.4794 52.842 35.96 53.1154C36.4405 53.3888 37.0206 53.5256 37.7 53.5256C38.1723 53.5256 38.6032 53.4593 38.9926 53.3267C39.3904 53.1941 39.7301 53.0036 40.0118 52.755C40.2935 52.4981 40.5007 52.1915 40.6333 51.8352H46.8975C46.682 53.161 46.1724 54.3127 45.3687 55.2905C44.565 56.2599 43.5002 57.014 42.1745 57.5526C40.857 58.0829 39.3158 58.348 37.5509 58.348ZM58.8448 58.348C56.8065 58.348 55.0498 57.9586 53.5749 57.1797C52.1083 56.3925 50.9773 55.2656 50.1818 53.799C49.3946 52.3241 49.0011 50.5592 49.0011 48.5043C49.0011 46.5322 49.3988 44.8087 50.1942 43.3338C50.9897 41.8589 52.1125 40.7113 53.5625 39.891C55.0125 39.0707 56.7236 38.6605 58.6957 38.6605C60.1374 38.6605 61.4425 38.8842 62.6108 39.3317C63.7791 39.7791 64.7776 40.4296 65.6062 41.283C66.4348 42.1282 67.0728 43.1557 67.5202 44.3654C67.9677 45.5752 68.1914 46.9382 68.1914 48.4545V50.0455H51.1388V46.267H61.8775C61.8692 45.7202 61.7283 45.2396 61.4549 44.8253C61.1897 44.4027 60.8293 44.0754 60.3736 43.8434C59.9261 43.6031 59.4165 43.483 58.8448 43.483C58.2897 43.483 57.7801 43.6031 57.3161 43.8434C56.852 44.0754 56.4792 44.3986 56.1974 44.8129C55.924 45.2272 55.779 45.7119 55.7624 46.267V50.3438C55.7624 50.9569 55.8909 51.5038 56.1477 51.9844C56.4046 52.465 56.7733 52.842 57.2539 53.1154C57.7345 53.3888 58.3145 53.5256 58.994 53.5256C59.4663 53.5256 59.8971 53.4593 60.2866 53.3267C60.6843 53.1941 61.024 53.0036 61.3058 52.755C61.5875 52.4981 61.7946 52.1915 61.9272 51.8352H68.1914C67.976 53.161 67.4664 54.3127 66.6626 55.2905C65.8589 56.2599 64.7942 57.014 63.4684 57.5526C62.1509 58.0829 60.6097 58.348 58.8448 58.348ZM77.8518 47.2614V58H70.991V38.9091H77.5038V42.5384H77.7027C78.117 41.3286 78.8461 40.3799 79.8902 39.6921C80.9425 39.0044 82.1688 38.6605 83.5692 38.6605C84.9198 38.6605 86.0922 38.9712 87.0866 39.5927C88.0892 40.2058 88.8639 41.051 89.4108 42.1282C89.9659 43.2054 90.2394 44.4358 90.2311 45.8196V58H83.3703V47.2614C83.3786 46.3168 83.1383 45.5752 82.6494 45.0366C82.1688 44.498 81.4977 44.2287 80.6359 44.2287C80.0725 44.2287 79.5795 44.353 79.1569 44.6016C78.7426 44.8419 78.4236 45.1899 78.1998 45.6456C77.9761 46.093 77.8601 46.6316 77.8518 47.2614Z" fill="#126F77"/>
</g>
<defs>
<clipPath id="clip0_86_684">
<rect width="160" height="60" fill="white"/>
</clipPath>
</defs>
</svg>
