<svg width="16" height="16" viewBox="0 0 16 16" fill="none" xmlns="http://www.w3.org/2000/svg">
<path d="M12.5809 3.20006H10.1557V2.9334C10.1557 2.19822 9.55124 1.6001 8.8083 1.6001H7.19146C6.44852 1.6001 5.84409 2.19822 5.84409 2.9334V3.20006H3.41883C3.27589 3.20006 3.13881 3.25625 3.03774 3.35627C2.93666 3.45629 2.87988 3.59194 2.87988 3.73339V4.53337C2.87988 4.67482 2.93666 4.81047 3.03774 4.91049C3.13881 5.0105 3.27589 5.06669 3.41883 5.06669H12.5809C12.7239 5.06669 12.861 5.0105 12.962 4.91049C13.0631 4.81047 13.1199 4.67482 13.1199 4.53337V3.73339C13.1199 3.59194 13.0631 3.45629 12.962 3.35627C12.861 3.25625 12.7239 3.20006 12.5809 3.20006ZM6.92199 2.9334C6.92199 2.78647 7.04298 2.66674 7.19146 2.66674H8.8083C8.95678 2.66674 9.07778 2.78647 9.07778 2.9334V3.20006H6.92199V2.9334ZM12.3869 5.77468C12.3364 5.71968 12.2748 5.67574 12.2061 5.64566C12.1375 5.61559 12.0632 5.60004 11.9881 5.60001H4.01167C3.93657 5.60005 3.8623 5.61561 3.79362 5.6457C3.72494 5.67579 3.66338 5.71975 3.61287 5.77475C3.56236 5.82976 3.52402 5.8946 3.5003 5.96512C3.47659 6.03564 3.46802 6.11028 3.47515 6.18427L4.13752 13.0343C4.2127 13.8129 4.90498 14.4001 5.74789 14.4001H10.2519C11.0945 14.4001 11.7871 13.8129 11.8622 13.0343L12.5246 6.18427C12.5318 6.11027 12.5232 6.03561 12.4995 5.96507C12.4758 5.89453 12.4374 5.82968 12.3869 5.77468ZM6.74036 13.0655C6.72878 13.066 6.71746 13.0665 6.70587 13.0665C6.5689 13.0664 6.43713 13.0147 6.33732 12.9218C6.23752 12.829 6.17717 12.7021 6.16854 12.5668L5.84517 7.50024C5.83624 7.3591 5.8843 7.22022 5.97879 7.11411C6.07327 7.00801 6.20646 6.94337 6.34909 6.93439C6.49165 6.92584 6.63184 6.97349 6.73899 7.06694C6.84615 7.16038 6.91155 7.29201 6.92091 7.43304L7.24428 12.4996C7.25321 12.6407 7.20515 12.7796 7.11066 12.8857C7.01618 12.9918 6.88299 13.0565 6.74036 13.0655ZM9.83123 12.5668C9.82712 12.637 9.80905 12.7056 9.77804 12.7688C9.74704 12.832 9.70371 12.8886 9.65056 12.9352C9.5974 12.9818 9.53547 13.0175 9.46831 13.0403C9.40115 13.0632 9.3301 13.0727 9.25923 13.0682C9.18836 13.0638 9.11907 13.0456 9.05535 13.0146C8.99162 12.9835 8.93472 12.9404 8.88791 12.8875C8.8411 12.8347 8.8053 12.7732 8.78258 12.7066C8.75985 12.6401 8.75065 12.5697 8.75549 12.4996L9.07886 7.43304C9.08857 7.29241 9.15415 7.16129 9.26127 7.06837C9.36839 6.97544 9.50833 6.92826 9.6505 6.93715C9.79267 6.94603 9.92551 7.01024 10.02 7.11576C10.1144 7.22128 10.1628 7.35951 10.1546 7.50024L9.83123 12.5668Z" fill="#6B7280"/>
</svg>
