<svg width="14" height="14" viewBox="0 0 14 14" fill="none" xmlns="http://www.w3.org/2000/svg">
<path d="M6.69221 9.11813L3.20337 5.72462C3.12262 5.64613 3.07812 5.54136 3.07812 5.42964C3.07812 5.31792 3.12262 5.21315 3.20337 5.13466L3.46024 4.88475C3.62762 4.72213 3.89966 4.72213 4.06679 4.88475L6.9965 7.73436L9.92946 4.88159C10.0102 4.8031 10.1179 4.75977 10.2327 4.75977C10.3476 4.75977 10.4553 4.8031 10.5361 4.88159L10.7929 5.1315C10.8736 5.21005 10.9181 5.31476 10.9181 5.42648C10.9181 5.5382 10.8736 5.64297 10.7929 5.72146L7.30086 9.11813C7.21984 9.1968 7.11168 9.24001 6.99669 9.23976C6.88126 9.24001 6.77316 9.1968 6.69221 9.11813Z" fill="#353535"/>
</svg>
