<svg width="16" height="16" viewBox="0 0 16 16" fill="none" xmlns="http://www.w3.org/2000/svg">
<path d="M11.7332 7.99975C11.4383 7.99975 11.1999 8.23874 11.1999 8.53307V12.7999C11.1999 13.0938 10.9609 13.3332 10.6666 13.3332H3.19966C2.90523 13.3332 2.66634 13.0938 2.66634 12.7999V5.33296C2.66634 5.0391 2.90523 4.79965 3.19966 4.79965H7.4665C7.76144 4.79965 7.99982 4.56069 7.99982 4.26633C7.99982 3.97189 7.76144 3.73291 7.4665 3.73291H3.19966C2.31751 3.73291 1.59961 4.45081 1.59961 5.33296V12.7999C1.59961 13.6821 2.31751 14.4 3.19966 14.4H10.6666C11.5488 14.4 12.2667 13.6821 12.2667 12.7999V8.53307C12.2667 8.23816 12.0282 7.99975 11.7332 7.99975Z" fill="#6B7280"/>
<path d="M6.60081 7.51401C6.56374 7.55125 6.53836 7.5985 6.52776 7.64997L6.1507 9.53598C6.13312 9.62338 6.16085 9.71351 6.22375 9.77699C6.24857 9.80173 6.27803 9.82134 6.31043 9.8347C6.34284 9.84806 6.37756 9.8549 6.41261 9.85484C6.42961 9.85484 6.44728 9.85327 6.46486 9.84957L8.35027 9.4725C8.40252 9.46175 8.44997 9.43675 8.4868 9.39935L12.7067 5.17946L10.8213 3.29415L6.60081 7.51401ZM14.0101 1.99013C13.4902 1.47009 12.6443 1.47009 12.1247 1.99013L11.3866 2.72823L13.272 4.61364L14.0101 3.87544C14.2619 3.62426 14.4006 3.28927 14.4006 2.93301C14.4006 2.57675 14.2619 2.24179 14.0101 1.99013Z" fill="#6B7280"/>
</svg>
