<svg width="40" height="40" viewBox="0 0 40 40" fill="none" xmlns="http://www.w3.org/2000/svg">
<rect width="40" height="40" rx="5" fill="#16A34A"/>
<path d="M27.5984 15.5556V16.7407H12.3984V15.5556C12.3984 15.2412 12.5216 14.9398 12.7409 14.7175C12.9602 14.4952 13.2576 14.3704 13.5677 14.3704H15.3215V12.5926C15.3215 12.4354 15.3831 12.2847 15.4927 12.1736C15.6024 12.0624 15.7511 12 15.9061 12C16.0612 12 16.2099 12.0624 16.3195 12.1736C16.4292 12.2847 16.4907 12.4354 16.4907 12.5926V14.3704H23.5061V12.5926C23.5061 12.4354 23.5677 12.2847 23.6774 12.1736C23.787 12.0624 23.9357 12 24.0907 12C24.2458 12 24.3945 12.0624 24.5041 12.1736C24.6138 12.2847 24.6754 12.4354 24.6754 12.5926V14.3704H26.4292C26.7393 14.3704 27.0367 14.4952 27.256 14.7175C27.4753 14.9398 27.5984 15.2412 27.5984 15.5556ZM12.3984 17.9259H27.5984V26.8148C27.5984 27.1291 27.4753 27.4306 27.256 27.6529C27.0367 27.8751 26.7393 28 26.4292 28H13.5677C13.2576 28 12.9602 27.8751 12.7409 27.6529C12.5216 27.4306 12.3984 27.1291 12.3984 26.8148V17.9259ZM16.6954 22.163L17.8646 23.3007C17.9199 23.3527 17.9612 23.418 17.9847 23.4905C18.0083 23.5631 18.0132 23.6405 17.9991 23.7156L17.7301 25.3274C17.7159 25.4144 17.7258 25.5037 17.7589 25.5852C17.7919 25.6668 17.8467 25.7374 17.9172 25.7891C17.9876 25.8408 18.0709 25.8716 18.1577 25.8779C18.2444 25.8843 18.3312 25.8661 18.4083 25.8252L19.8289 25.0667C19.8969 25.0318 19.972 25.0136 20.0481 25.0136C20.1243 25.0136 20.1994 25.0318 20.2674 25.0667L21.688 25.8252C21.7639 25.8584 21.8472 25.8706 21.9294 25.8606C22.0115 25.8505 22.0895 25.8185 22.1555 25.7679C22.2215 25.7173 22.273 25.6499 22.3049 25.5725C22.3368 25.4951 22.3478 25.4105 22.3369 25.3274L22.068 23.7156C22.0538 23.6405 22.0588 23.5631 22.0823 23.4905C22.1058 23.418 22.1472 23.3527 22.2024 23.3007L23.3717 22.163C23.4329 22.1006 23.476 22.0223 23.4963 21.9367C23.5166 21.8511 23.5133 21.7615 23.4868 21.6777C23.4602 21.5939 23.4114 21.5191 23.3458 21.4615C23.2801 21.4039 23.2001 21.3657 23.1144 21.3511L21.5184 21.12C21.4463 21.1117 21.377 21.0865 21.3161 21.0464C21.2553 21.0063 21.2044 20.9524 21.1677 20.8889L20.4544 19.4252C20.4155 19.3466 20.3558 19.2805 20.282 19.2344C20.2082 19.1882 20.1232 19.1638 20.0364 19.1638C19.9497 19.1638 19.8647 19.1882 19.7909 19.2344C19.717 19.2805 19.6573 19.3466 19.6184 19.4252L18.8994 20.8889C18.8661 20.9579 18.8168 21.0177 18.7557 21.0631C18.6946 21.1085 18.6235 21.1382 18.5486 21.1496L16.9584 21.3807C16.8779 21.3977 16.8031 21.4357 16.7414 21.491C16.6797 21.5462 16.6333 21.6168 16.6068 21.6958C16.5802 21.7747 16.5744 21.8594 16.5899 21.9413C16.6055 22.0232 16.6418 22.0996 16.6954 22.163Z" fill="white"/>
</svg>
