<svg width="31" height="30" viewBox="0 0 31 30" fill="none" xmlns="http://www.w3.org/2000/svg">
<rect x="0.5" width="30" height="30" rx="15" fill="#1D4ED8"/>
<path d="M19.4797 20.5999C19.6013 20.5999 19.7008 20.4991 19.7008 20.3759V9.6239C19.7008 9.5007 19.6013 9.3999 19.4797 9.3999H11.5218C11.398 9.3999 11.3008 9.5007 11.3008 9.6239V20.3759C11.3008 20.4991 11.398 20.5999 11.5218 20.5999H19.4797ZM17.0791 19.2895C17.057 19.2962 17.0349 19.2985 17.0128 19.2985C16.9177 19.2985 16.8315 19.238 16.8006 19.1417L16.6525 18.6601H15.6798L15.5295 19.1417C15.4919 19.2604 15.3681 19.3253 15.2532 19.2895C15.136 19.2514 15.0719 19.126 15.1073 19.0073L15.9539 16.2767C15.9681 16.231 15.9964 16.1911 16.0346 16.1629C16.0728 16.1347 16.1189 16.1196 16.1661 16.1199C16.2612 16.1199 16.3474 16.1826 16.3761 16.2767L17.2228 19.0073C17.2604 19.126 17.194 19.2514 17.0791 19.2895ZM18.958 17.7103C18.958 17.8335 18.8608 17.9343 18.737 17.9343H18.4231V18.2524C18.4231 18.3778 18.3236 18.4764 18.202 18.4764C18.0805 18.4764 17.981 18.3778 17.981 18.2524V17.9343H17.6649C17.5433 17.9343 17.4438 17.8335 17.4438 17.7103C17.4438 17.5849 17.5433 17.4863 17.6649 17.4863H17.981V17.166C17.981 17.0428 18.0805 16.942 18.202 16.942C18.3236 16.942 18.4231 17.0428 18.4231 17.166V17.4863H18.737C18.8608 17.4863 18.958 17.5849 18.958 17.7103ZM12.7774 11.0149H18.2241C18.3457 11.0149 18.4452 11.1157 18.4452 11.2389C18.4452 11.3644 18.3457 11.4629 18.2241 11.4629H12.7774C12.6536 11.4629 12.5564 11.3644 12.5564 11.2389C12.5564 11.1157 12.6536 11.0149 12.7774 11.0149ZM12.7774 12.9167H18.2241C18.3457 12.9167 18.4452 13.0175 18.4452 13.1407C18.4452 13.2661 18.3457 13.3647 18.2241 13.3647H12.7774C12.6536 13.3647 12.5564 13.2661 12.5564 13.1407C12.5564 13.0175 12.6536 12.9167 12.7774 12.9167ZM12.7774 14.8185H18.2241C18.3457 14.8185 18.4452 14.9193 18.4452 15.0425C18.4452 15.1679 18.3457 15.2665 18.2241 15.2665H12.7774C12.6536 15.2665 12.5564 15.1679 12.5564 15.0425C12.5564 14.9193 12.6536 14.8185 12.7774 14.8185Z" fill="#E6F3FF"/>
<path d="M15.8164 18.2123H16.5127L16.1657 17.0923L15.8164 18.2123Z" fill="#1E293B"/>
</svg>
