<svg width="31" height="30" viewBox="0 0 31 30" fill="none" xmlns="http://www.w3.org/2000/svg">
<rect x="0.832031" width="30" height="30" rx="15" fill="#264D87"/>
<path d="M17.7725 16.3668C18.4615 16.3668 19.135 16.1625 19.7078 15.7798C20.2807 15.397 20.7272 14.853 20.9908 14.2164C21.2545 13.5799 21.3235 12.8795 21.1891 12.2038C21.0546 11.5281 20.7229 10.9074 20.2357 10.4202C19.7485 9.93302 19.1278 9.60125 18.4521 9.46684C17.7764 9.33243 17.076 9.40141 16.4395 9.66507C15.8029 9.92872 15.2589 10.3752 14.8761 10.9481C14.4934 11.5209 14.2891 12.1944 14.2891 12.8834C14.2901 13.8069 14.6574 14.6924 15.3105 15.3454C15.9635 15.9985 16.849 16.3658 17.7725 16.3668ZM17.7725 13.192C17.5306 13.192 17.2967 13.1055 17.113 12.9482C16.9293 12.7909 16.8078 12.5731 16.7706 12.3341C16.7333 12.0951 16.7827 11.8506 16.9098 11.6448C17.037 11.439 17.2335 11.2855 17.4639 11.2118V10.9432C17.4639 10.8613 17.4964 10.7828 17.5543 10.725C17.6122 10.6671 17.6907 10.6345 17.7725 10.6345C17.8544 10.6345 17.9329 10.6671 17.9908 10.725C18.0487 10.7828 18.0812 10.8613 18.0812 10.9432V11.1637H18.478C18.5599 11.1637 18.6384 11.1962 18.6963 11.2541C18.7542 11.312 18.7867 11.3905 18.7867 11.4723C18.7867 11.5542 18.7542 11.6327 18.6963 11.6906C18.6384 11.7485 18.5599 11.781 18.478 11.781H17.7725C17.6673 11.781 17.5663 11.8228 17.4919 11.8972C17.4175 11.9717 17.3757 12.0726 17.3757 12.1779C17.3757 12.2831 17.4175 12.384 17.4919 12.4585C17.5663 12.5329 17.6673 12.5747 17.7725 12.5747C18.0144 12.5747 18.2483 12.6612 18.432 12.8185C18.6158 12.9759 18.7372 13.1937 18.7745 13.4327C18.8117 13.6717 18.7623 13.9161 18.6352 14.1219C18.5081 14.3277 18.3116 14.4813 18.0812 14.5549V14.8235C18.0812 14.9054 18.0487 14.9839 17.9908 15.0418C17.9329 15.0997 17.8544 15.1322 17.7725 15.1322C17.6907 15.1322 17.6122 15.0997 17.5543 15.0418C17.4964 14.9839 17.4639 14.9054 17.4639 14.8235V14.6031H17.067C16.9852 14.6031 16.9066 14.5705 16.8488 14.5126C16.7909 14.4548 16.7584 14.3763 16.7584 14.2944C16.7584 14.2125 16.7909 14.134 16.8488 14.0761C16.9066 14.0182 16.9852 13.9857 17.067 13.9857H17.7725C17.8778 13.9857 17.9787 13.9439 18.0531 13.8695C18.1276 13.7951 18.1694 13.6941 18.1694 13.5889C18.1694 13.4836 18.1276 13.3827 18.0531 13.3083C17.9787 13.2338 17.8778 13.192 17.7725 13.192Z" fill="white"/>
<path d="M12.0383 16.1025H10.5391C10.3687 16.1025 10.2305 16.2407 10.2305 16.4112V20.2915C10.2305 20.462 10.3687 20.6002 10.5391 20.6002H12.0383C12.2088 20.6002 12.347 20.462 12.347 20.2915V16.4112C12.347 16.2407 12.2088 16.1025 12.0383 16.1025Z" fill="white"/>
<path d="M20.4634 16.9694L18.6492 18.0161C18.6423 18.0586 18.6334 18.1007 18.6223 18.1424C18.5372 18.4585 18.3302 18.7279 18.0467 18.8916C17.7632 19.0552 17.4264 19.0998 17.1101 19.0154L15.6193 18.6166C15.5795 18.6068 15.542 18.5891 15.5091 18.5646C15.4761 18.5401 15.4484 18.5093 15.4276 18.4739C15.4067 18.4386 15.3931 18.3994 15.3875 18.3587C15.382 18.3181 15.3846 18.2767 15.3952 18.2371C15.4058 18.1974 15.4243 18.1603 15.4494 18.1279C15.4746 18.0954 15.5059 18.0683 15.5417 18.0481C15.5774 18.028 15.6169 18.0151 15.6576 18.0104C15.6984 18.0056 15.7397 18.0091 15.7791 18.0205L17.2697 18.42C17.3483 18.4419 17.4305 18.4481 17.5115 18.4381C17.5925 18.4281 17.6707 18.4021 17.7416 18.3617C17.8125 18.3213 17.8747 18.2672 17.9246 18.2026C17.9744 18.1379 18.011 18.0641 18.0321 17.9852C18.0532 17.9064 18.0585 17.8242 18.0477 17.7433C18.0368 17.6624 18.01 17.5844 17.9688 17.514C17.9276 17.4435 17.8729 17.3819 17.8077 17.3327C17.7426 17.2835 17.6684 17.2478 17.5893 17.2275L16.2026 16.8559C15.8258 16.5671 15.3754 16.39 14.9029 16.3446C14.4303 16.2992 13.9545 16.3875 13.5296 16.5992L13.4651 16.6315H12.9648V20.0709H14.0566L16.9547 20.5647C17.1869 20.6042 17.4247 20.5956 17.6534 20.5395C17.8821 20.4835 18.097 20.3811 18.2846 20.2388L21.1763 18.0415C21.3068 17.9422 21.3946 17.7969 21.4219 17.6352C21.4491 17.4735 21.4137 17.3075 21.3229 17.1709C21.2321 17.0344 21.0927 16.9375 20.933 16.9001C20.7733 16.8627 20.6054 16.8875 20.4634 16.9694Z" fill="white"/>
</svg>
