<svg width="12" height="12" viewBox="0 0 12 12" fill="none" xmlns="http://www.w3.org/2000/svg">
<path d="M6.87289 7.2961C6.75716 7.2961 6.64617 7.25059 6.56433 7.16957C6.4825 7.08856 6.43652 6.97868 6.43652 6.8641V5.1361C6.43652 5.02153 6.4825 4.91165 6.56433 4.83063C6.64617 4.74962 6.75716 4.7041 6.87289 4.7041C6.98862 4.7041 7.09961 4.74962 7.18144 4.83063C7.26328 4.91165 7.30925 5.02153 7.30925 5.1361V6.8641C7.30925 6.97868 7.26328 7.08856 7.18144 7.16957C7.09961 7.25059 6.98862 7.2961 6.87289 7.2961Z" fill="white"/>
<path d="M6.87292 6.43218C6.75719 6.43218 6.6462 6.38666 6.56437 6.30565C6.48253 6.22463 6.43656 6.11475 6.43656 6.00018C6.43656 5.8856 6.48253 5.77572 6.56437 5.69471C6.6462 5.61369 6.75719 5.56818 6.87292 5.56818H10.3638C10.4796 5.56818 10.5906 5.61369 10.6724 5.69471C10.7542 5.77572 10.8002 5.8856 10.8002 6.00018C10.8002 6.11475 10.7542 6.22463 10.6724 6.30565C10.5906 6.38666 10.4796 6.43218 10.3638 6.43218H6.87292ZM1.63656 6.43218C1.52083 6.43218 1.40984 6.38666 1.328 6.30565C1.24617 6.22463 1.2002 6.11475 1.2002 6.00018C1.2002 5.8856 1.24617 5.77572 1.328 5.69471C1.40984 5.61369 1.52083 5.56818 1.63656 5.56818H5.56383C5.67956 5.56818 5.79055 5.61369 5.87239 5.69471C5.95422 5.77572 6.0002 5.8856 6.0002 6.00018C6.0002 6.11475 5.95422 6.22463 5.87239 6.30565C5.79055 6.38666 5.67956 6.43218 5.56383 6.43218H1.63656ZM4.6911 4.27218C4.57537 4.27218 4.46438 4.22666 4.38255 4.14565C4.30071 4.06463 4.25474 3.95475 4.25474 3.84018V2.11218C4.25474 1.9976 4.30071 1.88772 4.38255 1.80671C4.46438 1.72569 4.57537 1.68018 4.6911 1.68018C4.80684 1.68018 4.91783 1.72569 4.99966 1.80671C5.08149 1.88772 5.12747 1.9976 5.12747 2.11218V3.84018C5.12747 3.95475 5.08149 4.06463 4.99966 4.14565C4.91783 4.22666 4.80684 4.27218 4.6911 4.27218Z" fill="white"/>
<path d="M4.6911 3.40795C4.57537 3.40795 4.46438 3.36243 4.38255 3.28142C4.30071 3.2004 4.25474 3.09052 4.25474 2.97595C4.25474 2.86137 4.30071 2.75149 4.38255 2.67048C4.46438 2.58946 4.57537 2.54395 4.6911 2.54395H10.3638C10.4796 2.54395 10.5906 2.58946 10.6724 2.67048C10.7542 2.75149 10.8002 2.86137 10.8002 2.97595C10.8002 3.09052 10.7542 3.2004 10.6724 3.28142C10.5906 3.36243 10.4796 3.40795 10.3638 3.40795H4.6911ZM1.63656 3.40795C1.52083 3.40795 1.40984 3.36243 1.328 3.28142C1.24617 3.2004 1.2002 3.09052 1.2002 2.97595C1.2002 2.86137 1.24617 2.75149 1.328 2.67048C1.40984 2.58946 1.52083 2.54395 1.63656 2.54395H3.38201C3.49774 2.54395 3.60874 2.58946 3.69057 2.67048C3.7724 2.75149 3.81838 2.86137 3.81838 2.97595C3.81838 3.09052 3.7724 3.2004 3.69057 3.28142C3.60874 3.36243 3.49774 3.40795 3.38201 3.40795H1.63656ZM4.6911 10.3199C4.57537 10.3199 4.46438 10.2744 4.38255 10.1934C4.30071 10.1124 4.25474 10.0025 4.25474 9.88795V8.15995C4.25474 8.04537 4.30071 7.93549 4.38255 7.85448C4.46438 7.77346 4.57537 7.72795 4.6911 7.72795C4.80684 7.72795 4.91783 7.77346 4.99966 7.85448C5.08149 7.93549 5.12747 8.04537 5.12747 8.15995V9.88795C5.12747 10.0025 5.08149 10.1124 4.99966 10.1934C4.91783 10.2744 4.80684 10.3199 4.6911 10.3199Z" fill="white"/>
<path d="M4.6911 9.45629C4.57537 9.45629 4.46438 9.41077 4.38255 9.32976C4.30071 9.24874 4.25474 9.13886 4.25474 9.02429C4.25474 8.90971 4.30071 8.79983 4.38255 8.71881C4.46438 8.6378 4.57537 8.59229 4.6911 8.59229H10.3638C10.4796 8.59229 10.5906 8.6378 10.6724 8.71881C10.7542 8.79983 10.8002 8.90971 10.8002 9.02429C10.8002 9.13886 10.7542 9.24874 10.6724 9.32976C10.5906 9.41077 10.4796 9.45629 10.3638 9.45629H4.6911ZM1.63656 9.45629C1.52083 9.45629 1.40984 9.41077 1.328 9.32976C1.24617 9.24874 1.2002 9.13886 1.2002 9.02429C1.2002 8.90971 1.24617 8.79983 1.328 8.71881C1.40984 8.6378 1.52083 8.59229 1.63656 8.59229H3.38201C3.49774 8.59229 3.60874 8.6378 3.69057 8.71881C3.7724 8.79983 3.81838 8.90971 3.81838 9.02429C3.81838 9.13886 3.7724 9.24874 3.69057 9.32976C3.60874 9.41077 3.49774 9.45629 3.38201 9.45629H1.63656Z" fill="white"/>
</svg>
