<svg width="26" height="26" viewBox="0 0 26 26" fill="none" xmlns="http://www.w3.org/2000/svg">
<rect width="26" height="26" rx="3" fill="#063F6C"/>
<path d="M13.8729 14.2961C13.7572 14.2961 13.6462 14.2506 13.5643 14.1696C13.4825 14.0886 13.4365 13.9787 13.4365 13.8641V12.1361C13.4365 12.0215 13.4825 11.9116 13.5643 11.8306C13.6462 11.7496 13.7572 11.7041 13.8729 11.7041C13.9886 11.7041 14.0996 11.7496 14.1814 11.8306C14.2633 11.9116 14.3093 12.0215 14.3093 12.1361V13.8641C14.3093 13.9787 14.2633 14.0886 14.1814 14.1696C14.0996 14.2506 13.9886 14.2961 13.8729 14.2961Z" fill="white"/>
<path d="M13.8729 13.4322C13.7572 13.4322 13.6462 13.3867 13.5644 13.3056C13.4825 13.2246 13.4366 13.1147 13.4366 13.0002C13.4366 12.8856 13.4825 12.7757 13.5644 12.6947C13.6462 12.6137 13.7572 12.5682 13.8729 12.5682H17.3638C17.4796 12.5682 17.5906 12.6137 17.6724 12.6947C17.7542 12.7757 17.8002 12.8856 17.8002 13.0002C17.8002 13.1147 17.7542 13.2246 17.6724 13.3056C17.5906 13.3867 17.4796 13.4322 17.3638 13.4322H13.8729ZM8.63656 13.4322C8.52083 13.4322 8.40984 13.3867 8.328 13.3056C8.24617 13.2246 8.2002 13.1147 8.2002 13.0002C8.2002 12.8856 8.24617 12.7757 8.328 12.6947C8.40984 12.6137 8.52083 12.5682 8.63656 12.5682H12.5638C12.6796 12.5682 12.7906 12.6137 12.8724 12.6947C12.9542 12.7757 13.0002 12.8856 13.0002 13.0002C13.0002 13.1147 12.9542 13.2246 12.8724 13.3056C12.7906 13.3867 12.6796 13.4322 12.5638 13.4322H8.63656ZM11.6911 11.2722C11.5754 11.2722 11.4644 11.2267 11.3825 11.1456C11.3007 11.0646 11.2547 10.9547 11.2547 10.8402V9.11218C11.2547 8.9976 11.3007 8.88772 11.3825 8.80671C11.4644 8.72569 11.5754 8.68018 11.6911 8.68018C11.8068 8.68018 11.9178 8.72569 11.9997 8.80671C12.0815 8.88772 12.1275 8.9976 12.1275 9.11218V10.8402C12.1275 10.9547 12.0815 11.0646 11.9997 11.1456C11.9178 11.2267 11.8068 11.2722 11.6911 11.2722Z" fill="white"/>
<path d="M11.6911 10.4079C11.5754 10.4079 11.4644 10.3624 11.3825 10.2814C11.3007 10.2004 11.2547 10.0905 11.2547 9.97595C11.2547 9.86137 11.3007 9.75149 11.3825 9.67048C11.4644 9.58946 11.5754 9.54395 11.6911 9.54395H17.3638C17.4796 9.54395 17.5906 9.58946 17.6724 9.67048C17.7542 9.75149 17.8002 9.86137 17.8002 9.97595C17.8002 10.0905 17.7542 10.2004 17.6724 10.2814C17.5906 10.3624 17.4796 10.4079 17.3638 10.4079H11.6911ZM8.63656 10.4079C8.52083 10.4079 8.40984 10.3624 8.328 10.2814C8.24617 10.2004 8.2002 10.0905 8.2002 9.97595C8.2002 9.86137 8.24617 9.75149 8.328 9.67048C8.40984 9.58946 8.52083 9.54395 8.63656 9.54395H10.382C10.4977 9.54395 10.6087 9.58946 10.6906 9.67048C10.7724 9.75149 10.8184 9.86137 10.8184 9.97595C10.8184 10.0905 10.7724 10.2004 10.6906 10.2814C10.6087 10.3624 10.4977 10.4079 10.382 10.4079H8.63656ZM11.6911 17.3199C11.5754 17.3199 11.4644 17.2744 11.3825 17.1934C11.3007 17.1124 11.2547 17.0025 11.2547 16.8879V15.1599C11.2547 15.0454 11.3007 14.9355 11.3825 14.8545C11.4644 14.7735 11.5754 14.7279 11.6911 14.7279C11.8068 14.7279 11.9178 14.7735 11.9997 14.8545C12.0815 14.9355 12.1275 15.0454 12.1275 15.1599V16.8879C12.1275 17.0025 12.0815 17.1124 11.9997 17.1934C11.9178 17.2744 11.8068 17.3199 11.6911 17.3199Z" fill="white"/>
<path d="M11.6911 16.4563C11.5754 16.4563 11.4644 16.4108 11.3825 16.3298C11.3007 16.2487 11.2547 16.1389 11.2547 16.0243C11.2547 15.9097 11.3007 15.7998 11.3825 15.7188C11.4644 15.6378 11.5754 15.5923 11.6911 15.5923H17.3638C17.4796 15.5923 17.5906 15.6378 17.6724 15.7188C17.7542 15.7998 17.8002 15.9097 17.8002 16.0243C17.8002 16.1389 17.7542 16.2487 17.6724 16.3298C17.5906 16.4108 17.4796 16.4563 17.3638 16.4563H11.6911ZM8.63656 16.4563C8.52083 16.4563 8.40984 16.4108 8.328 16.3298C8.24617 16.2487 8.2002 16.1389 8.2002 16.0243C8.2002 15.9097 8.24617 15.7998 8.328 15.7188C8.40984 15.6378 8.52083 15.5923 8.63656 15.5923H10.382C10.4977 15.5923 10.6087 15.6378 10.6906 15.7188C10.7724 15.7998 10.8184 15.9097 10.8184 16.0243C10.8184 16.1389 10.7724 16.2487 10.6906 16.3298C10.6087 16.4108 10.4977 16.4563 10.382 16.4563H8.63656Z" fill="white"/>
</svg>
