<svg width="40" height="40" viewBox="0 0 40 40" fill="none" xmlns="http://www.w3.org/2000/svg">
<rect width="40" height="40" rx="5" fill="#1D4ED8"/>
<path fill-rule="evenodd" clip-rule="evenodd" d="M18.9597 27.3016H13.5426V25.5944H18.9597V27.3015V27.3016ZM21.3151 19.1318H27.4173C27.5717 19.1323 27.7196 19.1931 27.8288 19.3009C27.938 19.4087 27.9995 19.5547 28 19.7072V27.4246C27.9995 27.5771 27.938 27.7232 27.8288 27.831C27.7196 27.9388 27.5717 27.9995 27.4173 28H21.3151C21.1606 27.9995 21.0127 27.9388 20.9035 27.831C20.7943 27.7232 20.7328 27.5771 20.7323 27.4246V19.7072C20.7328 19.5548 20.7943 19.4087 20.9035 19.3009C21.0127 19.1931 21.1607 19.1324 21.3151 19.1319V19.1318ZM21.9244 20.1472C21.881 20.1473 21.8394 20.1644 21.8087 20.1947C21.778 20.225 21.7608 20.266 21.7607 20.3088V21.2888C21.7608 21.3317 21.778 21.3727 21.8087 21.403C21.8394 21.4333 21.881 21.4504 21.9244 21.4504H26.8079C26.8513 21.4504 26.8929 21.4333 26.9236 21.403C26.9543 21.3727 26.9715 21.3317 26.9716 21.2888V20.3088C26.9715 20.266 26.9542 20.2249 26.9236 20.1947C26.8929 20.1644 26.8513 20.1473 26.8079 20.1472H21.9244ZM25.9696 23.3796H26.8079C26.8513 23.3795 26.8929 23.3624 26.9236 23.3321C26.9542 23.3018 26.9715 23.2608 26.9716 23.2179V22.3904C26.9715 22.3476 26.9542 22.3065 26.9236 22.2762C26.8929 22.2459 26.8513 22.2289 26.8079 22.2288H25.9696C25.9262 22.2289 25.8846 22.2459 25.854 22.2762C25.8233 22.3065 25.806 22.3476 25.8059 22.3904V23.2181C25.806 23.2609 25.8233 23.302 25.854 23.3323C25.8846 23.3625 25.9262 23.3796 25.9696 23.3797V23.3796ZM23.947 23.3796H24.7853C24.8287 23.3795 24.8702 23.3624 24.9009 23.3321C24.9316 23.3018 24.9489 23.2608 24.949 23.2179V22.3904C24.9489 22.3476 24.9316 22.3065 24.9009 22.2762C24.8702 22.2459 24.8287 22.2289 24.7853 22.2288H23.947C23.9036 22.2289 23.862 22.2459 23.8314 22.2762C23.8007 22.3065 23.7834 22.3476 23.7833 22.3904V23.2181C23.7834 23.2609 23.8007 23.302 23.8314 23.3323C23.862 23.3625 23.9036 23.3796 23.947 23.3797V23.3796ZM21.9244 23.3796H22.7627C22.806 23.3795 22.8476 23.3624 22.8783 23.3321C22.909 23.3018 22.9263 23.2608 22.9263 23.2179V22.3904C22.9263 22.3476 22.909 22.3065 22.8783 22.2762C22.8476 22.2459 22.806 22.2289 22.7627 22.2288H21.9244C21.881 22.2289 21.8394 22.2459 21.8087 22.2762C21.778 22.3065 21.7608 22.3476 21.7607 22.3904V23.2181C21.7608 23.2609 21.778 23.302 21.8087 23.3323C21.8394 23.3625 21.881 23.3796 21.9244 23.3797V23.3796ZM23.947 25.2074H24.7853C24.8287 25.2073 24.8702 25.1903 24.9009 25.16C24.9316 25.1297 24.9489 25.0886 24.949 25.0458V24.2182C24.9489 24.1753 24.9316 24.1343 24.9009 24.104C24.8702 24.0737 24.8287 24.0567 24.7853 24.0566H23.947C23.9036 24.0567 23.862 24.0737 23.8314 24.104C23.8007 24.1343 23.7834 24.1753 23.7833 24.2182V25.0459C23.7834 25.0887 23.8007 25.1297 23.8314 25.16C23.862 25.1903 23.9036 25.2074 23.947 25.2075V25.2074ZM21.9244 25.2074H22.7627C22.806 25.2073 22.8476 25.1903 22.8783 25.16C22.909 25.1297 22.9263 25.0886 22.9263 25.0458V24.2182C22.9263 24.1753 22.909 24.1343 22.8783 24.104C22.8476 24.0737 22.806 24.0567 22.7627 24.0566H21.9244C21.881 24.0567 21.8394 24.0737 21.8087 24.104C21.778 24.1343 21.7608 24.1753 21.7607 24.2182V25.0459C21.7608 25.0887 21.778 25.1297 21.8087 25.16C21.8394 25.1903 21.881 25.2074 21.9244 25.2075V25.2074ZM25.9696 27.0352H26.8079C26.8513 27.0352 26.8929 27.0181 26.9236 26.9878C26.9542 26.9575 26.9715 26.9165 26.9716 26.8736V24.2182C26.9715 24.1753 26.9542 24.1343 26.9236 24.104C26.8929 24.0737 26.8513 24.0566 26.8079 24.0566H25.9696C25.9262 24.0567 25.8846 24.0737 25.854 24.104C25.8233 24.1343 25.806 24.1753 25.8059 24.2182V26.8737C25.806 26.9165 25.8233 26.9576 25.854 26.9879C25.8846 27.0182 25.9262 27.0352 25.9696 27.0353V27.0352ZM23.947 27.0352H24.7853C24.8287 27.0352 24.8702 27.0181 24.9009 26.9878C24.9316 26.9575 24.9489 26.9165 24.949 26.8736V26.0461C24.9489 26.0033 24.9316 25.9622 24.9009 25.9319C24.8702 25.9016 24.8287 25.8846 24.7853 25.8845H23.947C23.9036 25.8846 23.862 25.9016 23.8314 25.9319C23.8007 25.9622 23.7834 26.0033 23.7833 26.0461V26.8738C23.7834 26.9166 23.8007 26.9577 23.8314 26.9879C23.862 27.0182 23.9036 27.0353 23.947 27.0354V27.0352ZM21.9244 27.0352H22.7627C22.806 27.0352 22.8476 27.0181 22.8783 26.9878C22.909 26.9575 22.9263 26.9165 22.9263 26.8736V26.0461C22.9263 26.0033 22.909 25.9622 22.8783 25.9319C22.8476 25.9016 22.806 25.8846 22.7627 25.8845H21.9244C21.881 25.8846 21.8394 25.9016 21.8087 25.9319C21.778 25.9622 21.7608 26.0033 21.7607 26.0461V26.8738C21.7608 26.9166 21.778 26.9577 21.8087 26.9879C21.8394 27.0182 21.881 27.0353 21.9244 27.0354V27.0352ZM20.2085 25.5566V24.5804H14.9792C14.9097 24.5804 14.8431 24.5532 14.794 24.5047C14.7448 24.4562 14.7173 24.3904 14.7173 24.3218C14.7173 24.2533 14.7448 24.1875 14.794 24.139C14.8431 24.0905 14.9097 24.0633 14.9792 24.0633H20.2085V23.1257H14.9792C14.9097 23.1257 14.8431 23.0984 14.794 23.0499C14.7448 23.0014 14.7173 22.9357 14.7173 22.8671C14.7173 22.7985 14.7448 22.7327 14.794 22.6842C14.8431 22.6357 14.9097 22.6085 14.9792 22.6085H20.2085V21.4118H19.6618C19.5924 21.4117 19.5258 21.3844 19.4768 21.3359C19.4277 21.2875 19.4 21.2218 19.3999 21.1532V17.1103C19.4 17.0418 19.4277 16.9761 19.4768 16.9276C19.5258 16.8791 19.5924 16.8519 19.6618 16.8517H20.4429C20.5124 16.8519 20.5789 16.8791 20.628 16.9276C20.6771 16.9761 20.7047 17.0418 20.7048 17.1103V18.797C20.8855 18.6779 21.0978 18.6144 21.3151 18.6145H21.6787V15.931C21.6788 15.8625 21.7065 15.7968 21.7556 15.7483C21.8046 15.6998 21.8712 15.6725 21.9406 15.6724H22.7218C22.7912 15.6725 22.8578 15.6998 22.9068 15.7483C22.9559 15.7968 22.9836 15.8625 22.9837 15.931V18.6147H24.4835V12.6814C24.4832 12.5008 24.4104 12.3277 24.281 12.2C24.1517 12.0723 23.9763 12.0004 23.7934 12H17.4443V14.9178C17.4439 15.218 17.3229 15.5058 17.1079 15.718C16.8929 15.9303 16.6015 16.0497 16.2974 16.0501H13.3423V25.0773H19.3589L20.2085 25.5567V25.5566ZM16.7184 12.1996C16.7767 12.1411 16.8452 12.0935 16.9205 12.0591V14.9178C16.9202 15.0808 16.8544 15.2371 16.7376 15.3524C16.6209 15.4677 16.4626 15.5326 16.2974 15.5329H13.4021C13.4371 15.4585 13.4853 15.3909 13.5444 15.3333L16.7184 12.1996ZM21.2287 14.5523L15.6459 17.7348C15.6163 17.7517 15.5835 17.7626 15.5495 17.7669C15.5156 17.7713 15.4811 17.769 15.448 17.7601C15.415 17.7513 15.384 17.7362 15.3569 17.7155C15.3297 17.6949 15.307 17.6692 15.2899 17.6399C15.2729 17.6105 15.2618 17.5782 15.2574 17.5447C15.253 17.5111 15.2554 17.4771 15.2643 17.4444C15.2732 17.4118 15.2886 17.3812 15.3095 17.3544C15.3304 17.3276 15.3564 17.3052 15.3861 17.2883L20.9678 14.1066L20.5131 14.0177C20.479 14.0115 20.4466 13.9987 20.4176 13.9801C20.3886 13.9614 20.3636 13.9373 20.3442 13.9091C20.3247 13.8808 20.3111 13.8491 20.3041 13.8156C20.2971 13.7821 20.297 13.7477 20.3036 13.7141C20.3102 13.6806 20.3235 13.6487 20.3427 13.6203C20.3619 13.5919 20.3866 13.5675 20.4154 13.5486C20.4442 13.5296 20.4766 13.5165 20.5105 13.51C20.5445 13.5035 20.5794 13.5037 20.6133 13.5106L21.7503 13.7329C21.7879 13.7402 21.8234 13.7555 21.8543 13.7778C21.8853 13.8002 21.9109 13.8289 21.9293 13.8621C21.9478 13.8952 21.9586 13.932 21.9611 13.9697C21.9637 14.0075 21.9577 14.0453 21.9438 14.0806L21.5742 15.1525C21.5516 15.217 21.5042 15.27 21.4422 15.3C21.3802 15.33 21.3087 15.3345 21.2433 15.3127C21.1779 15.2908 21.1239 15.2442 21.0931 15.1832C21.0624 15.1222 21.0573 15.0516 21.0791 14.9869L21.2289 14.5523H21.2287ZM15.104 19.2109H15.8852C15.9546 19.211 16.0212 19.2383 16.0703 19.2868C16.1193 19.3352 16.147 19.4009 16.1471 19.4694V21.1532C16.147 21.2218 16.1193 21.2875 16.0703 21.3359C16.0212 21.3844 15.9546 21.4117 15.8852 21.4118H15.104C15.0346 21.4117 14.9681 21.3844 14.919 21.3359C14.8699 21.2875 14.8423 21.2218 14.8421 21.1532V19.4694C14.8423 19.4009 14.8699 19.3352 14.919 19.2868C14.9681 19.2383 15.0346 19.211 15.104 19.2109ZM17.3829 18.0314H18.1641C18.2335 18.0315 18.3 18.0588 18.3491 18.1073C18.3982 18.1557 18.4258 18.2214 18.426 18.29V21.1532C18.4258 21.2218 18.3982 21.2875 18.3491 21.3359C18.3 21.3844 18.2335 21.4117 18.1641 21.4118H17.3829C17.3135 21.4117 17.2469 21.3844 17.1978 21.3359C17.1488 21.2875 17.1211 21.2218 17.121 21.1532V18.2901C17.1211 18.2216 17.1488 18.1559 17.1978 18.1074C17.2469 18.0589 17.3135 18.0317 17.3829 18.0315V18.0314ZM19.4815 25.7421L20.3345 26.2235C20.3745 26.2462 20.4077 26.2789 20.4308 26.3183C20.4539 26.3577 20.4661 26.4025 20.4661 26.448C20.4661 26.4936 20.4539 26.5383 20.4308 26.5777C20.4077 26.6171 20.3745 26.6498 20.3345 26.6725L19.4815 27.1539V25.7421H19.4815ZM13.0209 27.3015H12.3928C12.2887 27.3013 12.1889 27.2604 12.1153 27.1877C12.0417 27.115 12.0002 27.0165 12 26.9136V25.9823C12.0002 25.8795 12.0417 25.7809 12.1153 25.7082C12.1889 25.6355 12.2887 25.5946 12.3928 25.5944H13.0209L13.0209 27.3015Z" fill="white"/>
</svg>
