<svg width="28" height="28" viewBox="0 0 28 28" fill="none" xmlns="http://www.w3.org/2000/svg">
<path d="M16.4224 14.3496L12.5441 18.3368C12.4544 18.4291 12.3347 18.48 12.207 18.48C12.0793 18.48 11.9596 18.4291 11.8699 18.3368L11.5842 18.0433C11.3984 17.852 11.3984 17.5411 11.5842 17.3501L14.8409 14.0018L11.5806 10.6499C11.4909 10.5576 11.4414 10.4345 11.4414 10.3034C11.4414 10.172 11.4909 10.049 11.5806 9.95661L11.8662 9.66312C11.956 9.57083 12.0757 9.51998 12.2034 9.51998C12.331 9.51998 12.4508 9.57083 12.5405 9.66312L16.4224 13.654C16.5123 13.7466 16.5617 13.8702 16.5614 14.0016C16.5617 14.1335 16.5123 14.2571 16.4224 14.3496Z" fill="#353535"/>
</svg>
