<svg width="31" height="30" viewBox="0 0 31 30" fill="none" xmlns="http://www.w3.org/2000/svg">
<rect x="0.5" width="30" height="30" rx="15" fill="#DC2626"/>
<path d="M20.6711 10.8912L21.0791 10.139C21.1146 10.069 21.0968 9.99904 21.0614 9.94656C20.7066 9.54422 20.5825 9.47425 20.0503 9.40428C19.9794 9.38678 19.9084 9.43926 19.873 9.49174L19.465 10.2439L18.5427 11.9408L15.5273 9.43926C15.4564 9.38678 15.3677 9.38678 15.2968 9.43926L10.0288 13.9525C9.90465 14.0575 9.86917 14.2149 9.92238 14.3723C9.97559 14.5298 10.1175 14.6172 10.2771 14.6172H10.5254V19.9527C10.5254 20.3025 10.827 20.5999 11.1817 20.5999H19.6246C19.9794 20.5999 20.2809 20.3025 20.2809 19.9527V14.6172H20.547C20.7066 14.6172 20.8485 14.5123 20.9017 14.3723C20.9549 14.2324 20.9195 14.0575 20.7953 13.9525L19.5892 12.9029C19.5892 12.9029 19.5714 12.9029 19.5714 12.8854L20.6711 10.8912C20.6534 10.8912 20.6534 10.8912 20.6711 10.8912ZM15.2436 19.3054C14.6582 19.078 14.0729 18.973 13.4876 18.973C12.9022 18.973 12.3169 19.078 11.7316 19.3054V14.6697C12.9909 14.2849 14.1793 14.2849 15.2258 14.6697V19.3054H15.2436ZM19.0925 19.3054C17.9396 18.8681 16.7512 18.8681 15.5983 19.3054V14.6697C16.1127 14.4773 16.6625 14.3898 17.2301 14.3898L17.1237 14.5823C17.106 14.5997 17.106 14.6172 17.106 14.6347V14.6522L16.9641 15.9817C16.9641 16.0517 16.9995 16.1217 17.0528 16.1566C17.0705 16.1741 17.106 16.1741 17.1414 16.1741C17.1769 16.1741 17.2301 16.1566 17.2479 16.1391L18.2766 15.282C18.2944 15.2645 18.3121 15.247 18.3121 15.2295L18.6668 14.5823C18.8087 14.6172 18.9329 14.6522 19.0748 14.6872V19.3054H19.0925ZM18.117 14.8971L17.5317 14.5823L19.6779 10.5763L20.2632 10.8912L18.117 14.8971Z" fill="white"/>
<path d="M14.59 15.4572V16.3318C14.59 16.4368 14.5191 16.5067 14.4127 16.5067H12.568C12.4616 16.5067 12.3906 16.4368 12.3906 16.3318V15.4572C12.3906 15.3522 12.4616 15.2822 12.568 15.2822H14.4127C14.5191 15.2822 14.59 15.3697 14.59 15.4572ZM14.4127 17.1715H12.568C12.4616 17.1715 12.3906 17.2415 12.3906 17.3464C12.3906 17.4514 12.4616 17.5214 12.568 17.5214H14.4127C14.5191 17.5214 14.59 17.4514 14.59 17.3464C14.59 17.2415 14.5191 17.1715 14.4127 17.1715ZM14.4127 18.1511H12.568C12.4616 18.1511 12.3906 18.2211 12.3906 18.326C12.3906 18.431 12.4616 18.501 12.568 18.501H14.4127C14.5191 18.501 14.59 18.431 14.59 18.326C14.59 18.2211 14.5191 18.1511 14.4127 18.1511ZM16.5057 17.5039H18.2616C18.3681 17.5039 18.439 17.4339 18.439 17.3289C18.439 17.224 18.3681 17.154 18.2616 17.154H16.5057C16.3992 17.154 16.3283 17.224 16.3283 17.3289C16.3283 17.4339 16.417 17.5039 16.5057 17.5039ZM18.4568 18.2911C18.4568 18.1861 18.3858 18.1161 18.2794 18.1161H16.5234C16.417 18.1161 16.346 18.1861 16.346 18.2911C16.346 18.396 16.417 18.466 16.5234 18.466H18.2794C18.3681 18.466 18.4568 18.396 18.4568 18.2911Z" fill="white"/>
</svg>
