<svg width="50" height="50" viewBox="0 0 50 50" fill="none" xmlns="http://www.w3.org/2000/svg">
<path d="M20.4166 5H7.91656C6.30828 5 5 6.30828 5 7.91656V15.4166C5 17.0252 6.30828 18.3334 7.91656 18.3334H20.4166C22.0252 18.3334 23.3334 17.0252 23.3334 15.4166V7.91656C23.3334 6.30828 22.0252 5 20.4166 5ZM20.4166 21.6666H7.91656C6.30828 21.6666 5 22.9748 5 24.5834V42.0834C5 43.6917 6.30828 45 7.91656 45H20.4166C22.0252 45 23.3334 43.6917 23.3334 42.0834V24.5834C23.3334 22.9748 22.0252 21.6666 20.4166 21.6666ZM42.0834 31.6666H29.5834C27.9748 31.6666 26.6666 32.9748 26.6666 34.5834V42.0834C26.6666 43.6917 27.9748 45 29.5834 45H42.0834C43.6917 45 45 43.6917 45 42.0834V34.5834C45 32.9748 43.6917 31.6666 42.0834 31.6666ZM42.0834 5H29.5834C27.9748 5 26.6666 6.30828 26.6666 7.91656V25.4166C26.6666 27.0252 27.9748 28.3334 29.5834 28.3334H42.0834C43.6917 28.3334 45 27.0252 45 25.4166V7.91656C45 6.30828 43.6917 5 42.0834 5Z" fill="black"/>
</svg>
