<svg width="14" height="14" viewBox="0 0 14 14" fill="none" xmlns="http://www.w3.org/2000/svg">
<path d="M5.71508 1.3999H2.21508C1.76476 1.3999 1.39844 1.76622 1.39844 2.21654V4.31654C1.39844 4.76695 1.76476 5.13327 2.21508 5.13327H5.71508C6.16548 5.13327 6.5318 4.76695 6.5318 4.31654V2.21654C6.5318 1.76622 6.16548 1.3999 5.71508 1.3999ZM5.71508 6.06654H2.21508C1.76476 6.06654 1.39844 6.43286 1.39844 6.88327V11.7833C1.39844 12.2336 1.76476 12.5999 2.21508 12.5999H5.71508C6.16548 12.5999 6.5318 12.2336 6.5318 11.7833V6.88327C6.5318 6.43286 6.16548 6.06654 5.71508 6.06654ZM11.7818 8.86654H8.2818C7.83139 8.86654 7.46508 9.23286 7.46508 9.68327V11.7833C7.46508 12.2336 7.83139 12.5999 8.2818 12.5999H11.7818C12.2321 12.5999 12.5984 12.2336 12.5984 11.7833V9.68327C12.5984 9.23286 12.2321 8.86654 11.7818 8.86654ZM11.7818 1.3999H8.2818C7.83139 1.3999 7.46508 1.76622 7.46508 2.21654V7.11654C7.46508 7.56695 7.83139 7.93327 8.2818 7.93327H11.7818C12.2321 7.93327 12.5984 7.56695 12.5984 7.11654V2.21654C12.5984 1.76622 12.2321 1.3999 11.7818 1.3999Z" fill="white"/>
</svg>
