<svg width="12" height="12" viewBox="0 0 12 12" fill="none" xmlns="http://www.w3.org/2000/svg">
<path d="M1.80219 2.3999H10.1982C10.5301 2.3999 10.8002 2.67025 10.8002 3.00256C10.8002 3.33487 10.5301 3.60522 10.1982 3.60522H1.80219C1.47025 3.6071 1.2002 3.33675 1.2002 3.00256C1.2002 2.67025 1.47025 2.3999 1.80219 2.3999ZM3.32123 5.39818H8.67916C9.0111 5.39818 9.28115 5.66853 9.28115 6.00084C9.28115 6.33315 9.0111 6.6035 8.67916 6.6035H3.32123C2.98929 6.6035 2.71924 6.33315 2.71924 6.00084C2.71924 5.66853 2.98929 5.39818 3.32123 5.39818ZM4.84028 8.39458H7.16011C7.49205 8.39458 7.7621 8.66494 7.7621 8.99724C7.7621 9.32955 7.49205 9.5999 7.16011 9.5999H4.84028C4.50834 9.5999 4.23829 9.32955 4.23829 8.99724C4.23829 8.66494 4.50834 8.39458 4.84028 8.39458Z" fill="white"/>
</svg>
