<svg width="28" height="28" viewBox="0 0 28 28" fill="none" xmlns="http://www.w3.org/2000/svg">
<path d="M11.5776 14.3496L15.4559 18.3368C15.5456 18.4291 15.6653 18.48 15.793 18.48C15.9207 18.48 16.0404 18.4291 16.1301 18.3368L16.4158 18.0433C16.6016 17.852 16.6016 17.5411 16.4158 17.3501L13.1591 14.0018L16.4194 10.6499C16.5091 10.5576 16.5586 10.4345 16.5586 10.3034C16.5586 10.172 16.5091 10.049 16.4194 9.95661L16.1338 9.66312C16.044 9.57083 15.9243 9.51998 15.7966 9.51998C15.669 9.51998 15.5492 9.57083 15.4595 9.66312L11.5776 13.654C11.4877 13.7466 11.4383 13.8702 11.4386 14.0016C11.4383 14.1335 11.4877 14.2571 11.5776 14.3496Z" fill="#353535"/>
</svg>
