<svg width="40" height="40" viewBox="0 0 40 40" fill="none" xmlns="http://www.w3.org/2000/svg">
<rect width="40" height="40" rx="5" fill="#DC2626"/>
<path d="M27.2751 15.6001H12.7249C12.5327 15.6002 12.3484 15.6748 12.2125 15.8074C12.0766 15.94 12.0002 16.1198 12 16.3074V23.6928C12.0002 23.8804 12.0766 24.0602 12.2125 24.1928C12.3484 24.3254 12.5327 24.4 12.7249 24.4001H27.2751C27.4673 24.4 27.6516 24.3254 27.7875 24.1928C27.9234 24.0602 27.9998 23.8804 28 23.6928V16.3074C27.9998 16.1198 27.9234 15.94 27.7875 15.8074C27.6516 15.6748 27.4673 15.6002 27.2751 15.6001ZM20.3603 18.924C20.3586 18.9468 20.3539 18.9693 20.3463 18.9909C20.3384 19.0072 20.3288 19.0227 20.3177 19.0372C20.3112 19.0503 20.3037 19.0629 20.2951 19.0748L16.76 23.0185C16.7352 23.0599 16.6998 23.0943 16.6573 23.1184C16.6148 23.1425 16.5666 23.1554 16.5174 23.1559H16.5071C16.4713 23.155 16.4359 23.1475 16.4029 23.1339C16.3939 23.1304 16.3852 23.1264 16.3769 23.1219C16.3488 23.1078 16.3234 23.0891 16.3017 23.0667C16.2989 23.0636 16.2946 23.0625 16.292 23.0597L12.7174 19.0748C12.7091 19.0628 12.7016 19.0502 12.6951 19.0372C12.684 19.0228 12.6744 19.0073 12.6666 18.9909C12.6591 18.9693 12.6544 18.9468 12.6526 18.924C12.6496 18.9132 12.6474 18.9022 12.646 18.8911V18.8864C12.6475 18.8578 12.6534 18.8296 12.6637 18.8027C12.6648 18.796 12.6664 18.7893 12.6683 18.7827C12.6771 18.7667 12.6876 18.7515 12.6994 18.7375C12.7082 18.7223 12.7183 18.7079 12.7297 18.6946L14.5671 16.9263C14.6205 16.875 14.6923 16.8461 14.7671 16.846H18.2437C18.3186 16.8461 18.3904 16.875 18.4437 16.9263L20.2814 18.6946C20.2927 18.7078 20.3028 18.722 20.3114 18.7369C20.3234 18.7513 20.334 18.7667 20.3431 18.7829C20.3457 18.7888 20.3454 18.796 20.3474 18.8022C20.358 18.8295 20.3639 18.8583 20.3651 18.8875V18.8922C20.3642 18.9029 20.3626 18.9135 20.3603 18.924ZM25.5031 23.1116H21.9386C21.8628 23.1116 21.7901 23.0822 21.7365 23.0299C21.683 22.9776 21.6529 22.9067 21.6529 22.8328C21.6529 22.7589 21.683 22.6879 21.7365 22.6357C21.7901 22.5834 21.8628 22.554 21.9386 22.554H25.5023C25.5781 22.554 25.6507 22.5834 25.7043 22.6357C25.7579 22.6879 25.788 22.7589 25.788 22.8328C25.788 22.9067 25.7579 22.9776 25.7043 23.0299C25.6507 23.0822 25.5781 23.1116 25.5023 23.1116H25.5031ZM26.3143 21.8978H21.9386C21.8628 21.8978 21.7901 21.8684 21.7365 21.8161C21.683 21.7638 21.6529 21.6929 21.6529 21.619C21.6529 21.545 21.683 21.4741 21.7365 21.4219C21.7901 21.3696 21.8628 21.3402 21.9386 21.3402H26.3143C26.3901 21.3402 26.4627 21.3696 26.5163 21.4219C26.5699 21.4741 26.6 21.545 26.6 21.619C26.6 21.6929 26.5699 21.7638 26.5163 21.8161C26.4627 21.8684 26.3901 21.8978 26.3143 21.8978ZM21.6529 20.4046C21.6529 20.3307 21.683 20.2598 21.7365 20.2075C21.7901 20.1552 21.8628 20.1258 21.9386 20.1258H24.304C24.3798 20.1258 24.4524 20.1552 24.506 20.2075C24.5596 20.2598 24.5897 20.3307 24.5897 20.4046C24.5897 20.4785 24.5596 20.5495 24.506 20.6017C24.4524 20.654 24.3798 20.6834 24.304 20.6834H21.9386C21.8628 20.6834 21.7901 20.654 21.7365 20.6017C21.683 20.5495 21.6529 20.4785 21.6529 20.4046ZM27.3531 18.8911C27.3531 18.965 27.323 19.036 27.2695 19.0882C27.2159 19.1405 27.1432 19.1699 27.0674 19.1699H21.9386C21.8628 19.1699 21.7901 19.1405 21.7365 19.0882C21.683 19.036 21.6529 18.965 21.6529 18.8911V17.1231C21.6529 17.0491 21.683 16.9782 21.7365 16.926C21.7901 16.8737 21.8628 16.8443 21.9386 16.8443H27.0674C27.1432 16.8443 27.2159 16.8737 27.2695 16.926C27.323 16.9782 27.3531 17.0491 27.3531 17.1231V18.8911Z" fill="white"/>
<path d="M18.4059 18.6123H19.3851L18.1279 17.4019H17.3719L18.4005 18.6042C18.4028 18.6062 18.4039 18.6098 18.4059 18.6123ZM17.4031 21.4553L19.4522 19.1699H18.3314L17.4031 21.4553ZM22.2248 17.4019H26.7825V18.6126H22.2248V17.4019ZM17.6634 18.6123L16.6276 17.4019H16.3976L15.3619 18.6123H17.6634ZM13.5625 19.1699L15.6311 21.4765L14.6939 19.1699H13.5625ZM14.6248 18.6042L15.6534 17.4019H14.8876L13.6291 18.6123H14.6188C14.6214 18.6098 14.6225 18.6062 14.6248 18.6042ZM15.3085 19.1699L16.5128 22.1336L17.7168 19.1699H15.3085Z" fill="white"/>
</svg>
