<svg width="30" height="30" viewBox="0 0 30 30" fill="none" xmlns="http://www.w3.org/2000/svg">
<rect width="30" height="30" rx="15" fill="#FDE9ED"/>
<path d="M12.2 11.6V10.8C12.2 10.747 12.1789 10.6961 12.1414 10.6586C12.1039 10.6211 12.053 10.6 12 10.6H9.2C9.14696 10.6 9.09609 10.6211 9.05858 10.6586C9.02107 10.6961 9 10.747 9 10.8V11.6H12.2ZM9 12V18.6H12.2V12H9ZM11.4 14.6H9.8C9.74696 14.6 9.69609 14.5789 9.65858 14.5414C9.62107 14.5039 9.6 14.453 9.6 14.4V12.8C9.6 12.747 9.62107 12.6961 9.65858 12.6586C9.69609 12.6211 9.74696 12.6 9.8 12.6H11.4C11.453 12.6 11.5039 12.6211 11.5414 12.6586C11.5789 12.6961 11.6 12.747 11.6 12.8V14.4C11.6 14.453 11.5789 14.5039 11.5414 14.5414C11.5039 14.5789 11.453 14.6 11.4 14.6ZM9 19.8V20.8C9 20.853 9.02107 20.9039 9.05858 20.9414C9.09609 20.9789 9.14696 21 9.2 21H12C12.053 21 12.1039 20.9789 12.1414 20.9414C12.1789 20.9039 12.2 20.853 12.2 20.8V19.8H9ZM9 19H12.2V19.4H9V19ZM12.6 19H15.2V19.4H12.6V19ZM15.2 9.8V9.2C15.2 9.14696 15.1789 9.09609 15.1414 9.05858C15.1039 9.02107 15.053 9 15 9H12.8C12.747 9 12.6961 9.02107 12.6586 9.05858C12.6211 9.09609 12.6 9.14696 12.6 9.2V9.8H15.2ZM12.6 11.2H15.2V18.6H12.6V11.2ZM12.6 19.8V20.8C12.6 20.853 12.6211 20.9039 12.6586 20.9414C12.6961 20.9789 12.747 21 12.8 21H15C15.053 21 15.1039 20.9789 15.1414 20.9414C15.1789 20.9039 15.2 20.853 15.2 20.8V19.8H12.6ZM12.6 10.2H15.2V10.8H12.6V10.2ZM15.5952 13.1416L15.7022 13.5525L19.0893 12.6492L18.9822 12.2384L15.5952 13.1416ZM17.2666 19.5487L20.6536 18.6454L20.4391 17.8232L17.0519 18.7265L17.2666 19.5487ZM20.3382 17.4362L19.1904 13.0362L15.8032 13.9395L16.951 18.3394L20.3382 17.4362Z" fill="#E82646"/>
<path d="M15.4937 12.7546L18.8806 11.8515L18.5935 10.75C18.5793 10.6987 18.5457 10.655 18.4997 10.6281C18.4538 10.6012 18.3992 10.5933 18.3475 10.606L15.3475 11.406C15.2966 11.42 15.2532 11.4533 15.2266 11.499C15.2 11.5446 15.1924 11.5988 15.2054 11.65L15.4937 12.7546ZM20.7541 19.0324L17.3668 19.9356L17.6054 20.85C17.6123 20.8755 17.6241 20.8995 17.6403 20.9204C17.6564 20.9414 17.6765 20.9589 17.6995 20.9721C17.7296 20.9903 17.7642 21 17.7995 21C17.817 21 17.8344 20.9979 17.8514 20.994L20.8514 20.194C20.9024 20.1801 20.9458 20.1467 20.9724 20.1011C20.9989 20.0554 21.0065 20.0012 20.9935 19.95L20.7541 19.0324Z" fill="#E82646"/>
</svg>
