<svg width="30" height="30" viewBox="0 0 30 30" fill="none" xmlns="http://www.w3.org/2000/svg">
<rect width="30" height="30" rx="15" fill="#E7EFFA"/>
<path fill-rule="evenodd" clip-rule="evenodd" d="M17.9672 14.0454L17.2693 12.8164C17.1212 12.5555 16.8678 12.4057 16.5708 12.4036C16.2737 12.4015 16.0193 12.5475 15.8667 12.8086L15.8665 12.8089C15.3118 13.7606 14.7139 14.9694 13.821 15.7907L12.6009 16.5069C12.2319 16.7234 11.9686 17.0568 11.8295 17.4351H9.73691C9.33103 17.4351 9 17.0986 9 16.6859V11.4599H18.1376V13.9732C18.0791 13.9928 18.0221 14.0169 17.9672 14.0454ZM10.2149 15.4939C10.1823 15.4939 10.151 15.5071 10.128 15.5305C10.1049 15.554 10.092 15.5857 10.092 15.6189V16.2006C10.092 16.2338 10.1049 16.2656 10.128 16.289C10.151 16.3125 10.1823 16.3256 10.2149 16.3256H10.7871C10.8197 16.3256 10.851 16.3124 10.874 16.289C10.8971 16.2656 10.91 16.2338 10.9101 16.2006V15.6189C10.9101 15.5857 10.8971 15.554 10.874 15.5305C10.851 15.5071 10.8197 15.4939 10.7871 15.4939H10.2149ZM11.1352 12.4728L10.9406 13.0818C10.9315 13.1103 10.9137 13.1352 10.8899 13.1528C10.866 13.1704 10.8373 13.1799 10.8079 13.1799H10.178C10.1486 13.1799 10.1199 13.1894 10.0961 13.207C10.0722 13.2246 10.0545 13.2495 10.0454 13.2779C10.0363 13.3064 10.0363 13.3371 10.0454 13.3656C10.0545 13.3941 10.0722 13.4189 10.096 13.4365L10.6056 13.8129C10.6294 13.8306 10.6471 13.8554 10.6562 13.8839C10.6654 13.9124 10.6653 13.9431 10.6562 13.9716L10.4616 14.5806C10.4525 14.6091 10.4525 14.6398 10.4616 14.6683C10.4707 14.6968 10.4885 14.7216 10.5123 14.7392C10.5361 14.7568 10.5649 14.7663 10.5943 14.7663C10.6238 14.7663 10.6525 14.7568 10.6764 14.7392L11.1859 14.3628C11.2098 14.3452 11.2385 14.3357 11.268 14.3357C11.2974 14.3357 11.3262 14.3452 11.35 14.3628L11.8596 14.7392C11.8834 14.7568 11.9121 14.7664 11.9416 14.7664C11.9711 14.7664 11.9998 14.7569 12.0237 14.7393C12.0475 14.7217 12.0653 14.6968 12.0744 14.6683C12.0835 14.6398 12.0834 14.6091 12.0743 14.5806L11.8797 13.9716C11.8706 13.9431 11.8706 13.9124 11.8797 13.8839C11.8888 13.8554 11.9065 13.8306 11.9304 13.8129L12.4399 13.4365C12.4637 13.4189 12.4815 13.3941 12.4906 13.3656C12.4997 13.3371 12.4996 13.3064 12.4905 13.2779C12.4814 13.2495 12.4637 13.2246 12.4399 13.207C12.4161 13.1894 12.3874 13.1799 12.3579 13.1799H11.728C11.6986 13.1799 11.6699 13.1704 11.646 13.1528C11.6222 13.1352 11.6044 13.1103 11.5953 13.0818L11.4007 12.4728C11.3916 12.4443 11.3738 12.4195 11.35 12.4019C11.3262 12.3842 11.2974 12.3747 11.268 12.3747C11.2385 12.3747 11.2097 12.3842 11.1859 12.4019C11.1621 12.4195 11.1443 12.4443 11.1352 12.4728ZM13.2828 13.9344C13.2501 13.9344 13.2189 13.9476 13.1958 13.971C13.1728 13.9945 13.1598 14.0263 13.1598 14.0594V14.6411C13.1598 14.6743 13.1728 14.7061 13.1958 14.7295C13.2189 14.753 13.2501 14.7661 13.2828 14.7661H13.8549C13.8875 14.7661 13.9188 14.753 13.9419 14.7295C13.9649 14.7061 13.9779 14.6743 13.9779 14.6411V14.0594C13.9779 14.0263 13.9649 13.9945 13.9419 13.971C13.9188 13.9476 13.8875 13.9344 13.8549 13.9344H13.2828ZM11.7488 15.4939C11.7162 15.4939 11.6849 15.5071 11.6619 15.5305C11.6388 15.554 11.6259 15.5857 11.6259 15.6189V16.2006C11.6259 16.2338 11.6388 16.2656 11.6619 16.289C11.6849 16.3125 11.7162 16.3256 11.7488 16.3256H12.321C12.3536 16.3256 12.3849 16.3125 12.4079 16.289C12.431 16.2656 12.444 16.2338 12.444 16.2006V15.6189C12.444 15.5857 12.431 15.554 12.4079 15.5305C12.3849 15.5071 12.3536 15.4939 12.321 15.4939H11.7488ZM13.2828 12.3749C13.2501 12.375 13.2189 12.3881 13.1958 12.4116C13.1728 12.435 13.1598 12.4668 13.1598 12.4999V13.0816C13.1598 13.1148 13.1728 13.1466 13.1958 13.17C13.2189 13.1935 13.2501 13.2066 13.2828 13.2066H13.8549C13.8875 13.2066 13.9188 13.1935 13.9419 13.17C13.9649 13.1466 13.9779 13.1148 13.9779 13.0816V12.4999C13.9779 12.4835 13.9747 12.4673 13.9685 12.4521C13.9624 12.4369 13.9533 12.4232 13.9419 12.4116C13.9305 12.3999 13.9169 12.3907 13.902 12.3845C13.8871 12.3782 13.8711 12.3749 13.8549 12.3749H13.2828ZM17.4017 9.62487C17.8072 9.62542 18.1376 9.96175 18.1376 10.3741V11.0599H9V10.3741C9 9.96175 9.33051 9.62542 9.73593 9.62487V10.1361C9.73593 10.4596 9.99545 10.7234 10.3136 10.7234H10.6789C10.997 10.7234 11.2566 10.4595 11.2566 10.1361V9.62487H11.7843V10.1361C11.7843 10.4596 12.0438 10.7234 12.362 10.7234H12.7273C13.0454 10.7234 13.3049 10.4595 13.3049 10.1361V9.62487H13.8327V10.1361C13.8327 10.4596 14.0922 10.7234 14.4104 10.7234H14.7757C15.0938 10.7234 15.3534 10.4595 15.3534 10.1361V9.62487H15.8811V10.1361C15.8811 10.4596 16.1406 10.7234 16.4588 10.7234H16.8241C17.1422 10.7234 17.4017 10.4595 17.4017 10.1361V9.62487ZM10.3136 9H10.6789C10.7804 9 10.8631 9.08412 10.8631 9.18727V10.1361C10.8631 10.2392 10.7804 10.3234 10.6789 10.3234H10.3136C10.2121 10.3234 10.1294 10.2393 10.1294 10.1361V9.18727C10.1294 9.08412 10.2121 9 10.3136 9ZM16.4588 9H16.8241C16.9255 9 17.0083 9.08412 17.0083 9.18727V10.1361C17.0083 10.2392 16.9255 10.3234 16.8241 10.3234H16.4588C16.3573 10.3234 16.2746 10.2393 16.2746 10.1361V9.18727C16.2746 9.08412 16.3573 9 16.4588 9ZM14.4104 9H14.7757C14.8771 9 14.9599 9.08412 14.9599 9.18727V10.1361C14.9599 10.2392 14.8771 10.3234 14.7757 10.3234H14.4104C14.3089 10.3234 14.2261 10.2393 14.2261 10.1361V9.18727C14.2261 9.08412 14.3089 9 14.4104 9ZM12.362 9H12.7273C12.8287 9 12.9115 9.08412 12.9115 9.18727V10.1361C12.9115 10.2392 12.8287 10.3234 12.7273 10.3234H12.362C12.2605 10.3234 12.1778 10.2393 12.1778 10.1361V9.18727C12.1778 9.08412 12.2605 9 12.362 9ZM18.0778 18.1303C17.3222 18.1325 16.5559 18.1944 15.8062 18.4195C15.7978 18.394 15.7869 18.3694 15.7736 18.3461L14.3938 15.9163C14.3779 15.8883 14.3587 15.8622 14.3366 15.8388C14.8714 15.2744 15.3023 14.5836 15.6865 13.9193L18.0778 18.1303ZM15.6296 18.8925L16.6914 20.7622L16.4615 20.8972C16.1001 21.1093 15.6345 20.9825 15.4258 20.615L14.7431 19.4128L15.6296 18.8925ZM18.1644 14.3925C18.5444 14.2082 19.0061 14.3494 19.2202 14.7265C19.4343 15.1036 19.3238 15.5807 18.9768 15.8231L18.1644 14.3925ZM19.4839 17.5161C19.5626 17.6546 19.5607 17.8135 19.4792 17.9498C19.3977 18.0862 19.2611 18.1612 19.1036 18.1549C18.9153 18.1474 18.7254 18.1396 18.5347 18.1348L15.9144 13.5207C16.0105 13.351 16.1074 13.1817 16.205 13.0128C16.2837 12.8781 16.4148 12.8025 16.5681 12.8036C16.7213 12.8047 16.8521 12.8818 16.9286 13.0164L19.4839 17.5161ZM15.4329 18.5461L14.1774 19.283C13.5198 19.669 12.6716 19.4371 12.2926 18.7695C11.9135 18.102 12.1401 17.2392 12.7976 16.8533L14.0531 16.1163L15.4329 18.5461ZM18.8916 13.4536C18.8636 13.5603 18.7556 13.6236 18.6507 13.5951C18.6003 13.5813 18.5574 13.5478 18.5313 13.5019C18.5052 13.4559 18.4982 13.4014 18.5116 13.3501L18.7159 12.5748C18.7441 12.4682 18.852 12.4048 18.9569 12.4334C19.0618 12.462 19.1241 12.5717 19.096 12.6783L18.8916 13.4536ZM19.989 15.963C19.9386 15.9493 19.8957 15.9157 19.8697 15.8697C19.8436 15.8238 19.8366 15.7692 19.8501 15.718C19.8637 15.6668 19.8967 15.6231 19.9419 15.5966C19.9871 15.5702 20.0408 15.563 20.0912 15.5768L20.8543 15.7855C20.9592 15.8141 21.0214 15.924 20.9932 16.0306C20.965 16.1372 20.857 16.2004 20.7521 16.1717L19.989 15.963ZM19.9511 14.4781C19.9059 14.5046 19.8523 14.5118 19.8019 14.4981C19.7515 14.4844 19.7085 14.4509 19.6824 14.4049C19.6281 14.3093 19.6604 14.1869 19.7544 14.1317L20.4394 13.7297C20.5334 13.6745 20.6538 13.7073 20.7081 13.8029C20.7342 13.8488 20.7412 13.9034 20.7277 13.9546C20.7142 14.0059 20.6813 14.0496 20.6361 14.0761L19.9511 14.4781Z" fill="#0F65CD"/>
</svg>
