<svg width="30" height="30" viewBox="0 0 30 30" fill="none" xmlns="http://www.w3.org/2000/svg">
<rect width="30" height="30" rx="15" fill="#E8F8E7"/>
<path d="M15.9686 16.5088L12.2281 15.1698V18.5325H9V16.4011C9 14.9586 10.2131 14.0654 11.7152 13.7203C12.6045 14.3291 13.7753 14.3291 14.664 13.7203C16.1373 14.0592 17.332 14.924 17.3778 16.3169L16.8429 16.5088H15.9686L15.9686 16.5088ZM13.1899 13.8846C14.4843 13.8846 15.5342 12.8237 15.5342 11.5151C15.5342 10.2065 14.4843 9.14631 13.1899 9.14631C11.8955 9.14631 10.8449 10.2065 10.8449 11.5151C10.8449 12.8238 11.8948 13.8846 13.1899 13.8846H13.1899ZM12.5178 19.7832L15.6298 20.8971V16.6972L12.5178 15.5832V19.7832ZM17.1817 20.8971L20.2945 19.7832V15.5832L17.1817 16.6972V20.8971ZM15.9187 21H16.8928V16.8008H15.9187V21ZM18.4147 12.0487V13.1281H18.6182V12.0487H18.4147ZM19.2535 11.3888C19.2412 11.2425 19.1278 11.1293 19.0656 11.1969C18.9816 11.2881 18.9406 11.5428 18.9228 11.7015C19.0731 11.6552 19.2678 11.5593 19.2535 11.3888ZM17.7787 11.4054C17.7773 11.5641 17.9666 11.6573 18.11 11.7015C18.0929 11.5427 18.0519 11.2881 17.9679 11.1969C17.901 11.1245 17.7801 11.2604 17.7787 11.4054ZM18.1257 13.1281V12.0072C17.8033 11.932 17.4611 11.736 17.4918 11.3646C17.5273 10.9471 17.9406 10.7393 18.179 10.9981C18.3306 11.1631 18.3819 11.4882 18.4051 11.7553C18.4953 11.7629 18.5383 11.7629 18.6278 11.7553C18.6558 11.4364 18.735 10.8615 19.1223 10.8849C19.3723 10.9008 19.5397 11.1507 19.5424 11.4019C19.5472 11.7532 19.218 11.9348 18.9078 12.0072V13.1281C18.9782 13.1281 19.2705 13.124 19.3197 13.1323C19.4932 12.4855 20.0028 12.2578 20.0028 11.5096C20.0028 10.6799 19.3375 10.0077 18.5164 10.0077C17.6954 10.0077 17.0301 10.6799 17.0301 11.5096C17.0301 12.2578 17.5403 12.4856 17.7138 13.1323C17.763 13.124 18.0554 13.1281 18.1257 13.1281V13.1281ZM19.2698 13.9433L19.2685 13.4201L17.7637 13.4215V13.9433C17.7637 14.0813 17.8757 14.1945 18.0123 14.1945H19.0205C19.1578 14.1945 19.2698 14.0813 19.2698 13.9433ZM18.0123 14.4872C18.0048 14.4872 17.9966 14.4865 17.9884 14.4865C17.9884 14.6335 18.1018 14.7474 18.2425 14.7474H18.791C18.931 14.7474 19.0451 14.6335 19.0451 14.4865C19.0369 14.4865 19.0287 14.4872 19.0205 14.4872H18.0123ZM17.4044 9.85448C17.4447 9.9242 17.5328 9.94835 17.6018 9.90764C17.6708 9.86761 17.694 9.77856 17.6544 9.70885L17.472 9.38927C17.4324 9.32024 17.3436 9.29609 17.2753 9.33682C17.2589 9.34632 17.2444 9.35902 17.2329 9.37418C17.2213 9.38934 17.2129 9.40666 17.208 9.42514C17.2031 9.44362 17.2019 9.4629 17.2044 9.48186C17.2069 9.50082 17.2131 9.51909 17.2227 9.53561L17.4044 9.85448ZM18.5164 9.66054C18.5548 9.66052 18.5916 9.64509 18.6188 9.61765C18.6459 9.59021 18.6612 9.55301 18.6612 9.5142V9.14631C18.6612 9.10751 18.6459 9.07031 18.6188 9.04288C18.5916 9.01544 18.5548 9.00002 18.5164 9C18.4371 9 18.3723 9.06557 18.3723 9.14631V9.5142C18.3723 9.59497 18.4372 9.66054 18.5164 9.66054ZM16.4187 10.4536L16.7343 10.6379C16.8033 10.6786 16.8921 10.6544 16.9317 10.5847C16.9713 10.515 16.9481 10.426 16.8791 10.386L16.5635 10.2017C16.4945 10.161 16.4064 10.1851 16.3661 10.2548C16.3265 10.3245 16.3497 10.4136 16.4187 10.4536ZM19.4324 9.90764C19.4654 9.9268 19.5045 9.93196 19.5413 9.922C19.578 9.91203 19.6094 9.88776 19.6284 9.85448L19.8108 9.5349C19.8202 9.51837 19.8263 9.50012 19.8287 9.48121C19.8311 9.46229 19.8298 9.44309 19.8249 9.42468C19.8199 9.40628 19.8114 9.38904 19.7999 9.37397C19.7883 9.35889 19.7739 9.34627 19.7575 9.33682C19.7412 9.32728 19.7232 9.32108 19.7045 9.31859C19.6858 9.31609 19.6668 9.31735 19.6486 9.32229C19.6304 9.32723 19.6133 9.33575 19.5984 9.34736C19.5834 9.35898 19.5709 9.37346 19.5615 9.38998L19.3791 9.70956C19.3395 9.77856 19.3634 9.86761 19.4324 9.90764ZM20.8559 11.3633H20.4911C20.4112 11.3633 20.3463 11.4289 20.3463 11.5096C20.3463 11.5904 20.4112 11.6553 20.4911 11.6553H20.8559C20.9351 11.6553 21 11.5904 21 11.5096C21 11.4289 20.9351 11.3633 20.8559 11.3633ZM16.1776 11.6553H16.5423C16.6222 11.6553 16.6871 11.5904 16.6871 11.5096C16.6871 11.4289 16.6222 11.3633 16.5423 11.3633H16.1776C16.0977 11.3633 16.0334 11.4289 16.0334 11.5096C16.0334 11.5904 16.0977 11.6553 16.1776 11.6553ZM20.6673 10.2548C20.6271 10.1851 20.5389 10.161 20.4699 10.2017L20.1544 10.386C20.1379 10.3955 20.1235 10.4082 20.112 10.4233C20.1004 10.4385 20.092 10.4558 20.0871 10.4743C20.0822 10.4928 20.081 10.512 20.0835 10.531C20.086 10.5499 20.0922 10.5682 20.1018 10.5847C20.1112 10.6013 20.1237 10.6159 20.1387 10.6276C20.1537 10.6392 20.1709 10.6478 20.1892 10.6527C20.2075 10.6577 20.2265 10.6589 20.2453 10.6564C20.2641 10.6538 20.2821 10.6475 20.2985 10.6379L20.6148 10.4536C20.6838 10.4136 20.707 10.3245 20.6674 10.2548L20.6673 10.2548Z" fill="#1ABE17"/>
</svg>
