<svg width="30" height="30" viewBox="0 0 30 30" fill="none" xmlns="http://www.w3.org/2000/svg">
<rect width="30" height="30" rx="15" fill="#E6F9FF"/>
<path d="M17.6303 18.9674H16.4696V18.0674H13.5117V18.9674H12.3323C11.9204 18.9674 11.6022 19.2981 11.6022 19.6838C11.6022 20.0879 11.9392 20.4001 12.3323 20.4001H17.6115C18.0234 20.4001 18.3417 20.0695 18.3417 19.6838C18.3604 19.2797 18.0421 18.9674 17.6303 18.9674ZM20.064 9.6001H9.91732C9.41186 9.6001 9 10.0042 9 10.5001V16.8001C9 17.296 9.41186 17.7001 9.91732 17.7001H20.0827C20.5881 17.7001 21 17.296 21 16.8001V10.5001C20.9813 10.0042 20.5694 9.6001 20.064 9.6001ZM20.6069 16.1021H13.3432L13.3058 14.9817C13.3058 14.7246 13.5117 14.5225 13.7738 14.5225C14.0359 14.5225 14.298 14.4307 14.5226 14.2654L16.1139 13.0715C16.1888 13.0164 16.2075 12.9062 16.1513 12.8144L16.0577 12.6858L17.78 11.5654C17.8736 11.5103 17.8924 11.4001 17.8362 11.3083C17.8175 11.2715 17.78 11.2532 17.7426 11.2348H19.6895C19.7832 11.2348 19.8768 11.1613 19.8768 11.0511C19.8768 10.9409 19.7832 10.8674 19.6895 10.8674H14.6349C14.5226 10.8674 14.4477 10.9409 14.4477 11.0511C14.4477 11.1613 14.5226 11.2348 14.6349 11.2348H17.6115C17.5928 11.2348 17.5928 11.2348 17.5741 11.2532L15.8331 12.3736L15.7395 12.245C15.6833 12.1715 15.571 12.1348 15.4774 12.1899L13.493 13.4572H12.1451C12.0702 13.4572 11.9953 13.5123 11.9766 13.5858L11.7332 14.247H11.6583L11.415 13.5858C11.3963 13.5123 11.3214 13.4572 11.2465 13.4572C10.61 13.4572 10.1045 13.9532 10.1045 14.5776V16.1021H9.37441V10.5001C9.37441 10.2062 9.61778 9.96744 9.91732 9.96744H20.0827C20.3822 9.96744 20.6256 10.2062 20.6256 10.5001V16.1021H20.6069Z" fill="#05C3FB"/>
<path d="M19.6907 12.0794H17.3132C17.2008 12.0794 17.126 12.1529 17.126 12.2631C17.126 12.3733 17.2008 12.4467 17.3132 12.4467H19.6907C19.803 12.4467 19.8779 12.3733 19.8779 12.2631C19.8779 12.1529 19.803 12.0794 19.6907 12.0794ZM19.6907 13.2733H16.3959C16.2835 13.2733 16.2086 13.3467 16.2086 13.4569C16.2086 13.5671 16.2835 13.6406 16.3959 13.6406H19.7094C19.8218 13.6406 19.8966 13.5671 19.8966 13.4569C19.8779 13.3467 19.803 13.2733 19.6907 13.2733ZM19.6907 14.4488H14.9356C14.8233 14.4488 14.7484 14.5222 14.7484 14.6324C14.7484 14.7427 14.8233 14.8161 14.9356 14.8161H19.6907C19.803 14.8161 19.8779 14.7427 19.8779 14.6324C19.8779 14.5406 19.803 14.4488 19.6907 14.4488ZM11.7157 11.1978C11.1728 11.1978 10.7422 11.6202 10.7422 12.1529C10.7422 12.6855 11.1728 13.108 11.7157 13.108C12.2586 13.108 12.6891 12.6855 12.6891 12.1529C12.6891 11.6202 12.2586 11.1978 11.7157 11.1978Z" fill="#05C3FB"/>
</svg>
