<svg width="30" height="30" viewBox="0 0 30 30" fill="none" xmlns="http://www.w3.org/2000/svg">
<rect width="30" height="30" rx="15" fill="#FEF8EA"/>
<path d="M10.6481 19.6018H17.6465V20.4001H9.77299V18.1636H10.4751V19.4273C10.4751 19.4736 10.4933 19.518 10.5258 19.5507C10.5582 19.5834 10.6022 19.6018 10.6481 19.6018ZM10.4751 10.7478H9.77299V15.0199H10.4751V10.7478ZM15.4653 17.8139H9V15.3695H15.4653V17.8139ZM9.74695 16.4109V15.9912H10.2477C10.2937 15.9912 10.3378 15.9728 10.3703 15.94C10.4028 15.9072 10.421 15.8628 10.421 15.8164C10.421 15.77 10.4028 15.7256 10.3703 15.6928C10.3378 15.66 10.2937 15.6416 10.2477 15.6416H9.57368C9.52773 15.6416 9.48367 15.66 9.45118 15.6928C9.41869 15.7256 9.40042 15.77 9.40038 15.8164V17.3555C9.40042 17.4018 9.41869 17.4463 9.45118 17.479C9.48367 17.5118 9.52773 17.5302 9.57368 17.5303H10.2477C10.2933 17.5297 10.3368 17.5111 10.3689 17.4784C10.4009 17.4457 10.4189 17.4016 10.4189 17.3556C10.4189 17.3096 10.4009 17.2655 10.3689 17.2328C10.3368 17.2001 10.2933 17.1814 10.2477 17.1809H9.74695V16.7605H10.2477C10.2933 16.76 10.3369 16.7413 10.369 16.7086C10.401 16.6758 10.419 16.6317 10.419 16.5857C10.419 16.5397 10.401 16.4955 10.369 16.4628C10.3369 16.4301 10.2933 16.4114 10.2477 16.4109H9.74695ZM11.4446 16.5858L11.8665 15.9093C11.891 15.8701 11.899 15.8227 11.8888 15.7775C11.8786 15.7323 11.851 15.693 11.8121 15.6684C11.7732 15.6437 11.7262 15.6356 11.6814 15.6459C11.6366 15.6562 11.5977 15.684 11.5732 15.7233L11.2399 16.2579L10.9067 15.7234C10.8822 15.6841 10.8433 15.6563 10.7985 15.646C10.7537 15.6357 10.7067 15.6438 10.6678 15.6685C10.6289 15.6931 10.6013 15.7324 10.5911 15.7776C10.5809 15.8228 10.5889 15.8702 10.6134 15.9094L11.0353 16.5859L10.6134 17.2624C10.5894 17.3017 10.5817 17.3489 10.592 17.3938C10.6023 17.4387 10.6298 17.4777 10.6685 17.5023C10.7072 17.5269 10.7539 17.535 10.7985 17.525C10.8431 17.515 10.882 17.4876 10.9067 17.4488L11.2399 16.9141L11.5734 17.4488C11.5981 17.4876 11.637 17.515 11.6816 17.525C11.7262 17.535 11.773 17.5269 11.8116 17.5023C11.8503 17.4777 11.8778 17.4387 11.8881 17.3938C11.8984 17.3489 11.8907 17.3017 11.8667 17.2624L11.4446 16.5858ZM13.4406 17.2954L12.8812 15.7564C12.8691 15.7227 12.8469 15.6937 12.8178 15.6731C12.7888 15.6526 12.7541 15.6416 12.7186 15.6416C12.6831 15.6416 12.6484 15.6526 12.6194 15.6731C12.5903 15.6937 12.5681 15.7227 12.556 15.7564L11.9964 17.2954C11.9884 17.317 11.9846 17.3401 11.9854 17.3631C11.9861 17.3862 11.9915 17.4089 12.001 17.4299C12.0105 17.4509 12.0241 17.4698 12.0409 17.4855C12.0577 17.5012 12.0774 17.5133 12.0989 17.5213C12.1204 17.5292 12.1432 17.5328 12.1661 17.5318C12.1889 17.5308 12.2114 17.5252 12.2321 17.5154C12.2528 17.5056 12.2714 17.4917 12.2868 17.4746C12.3022 17.4575 12.314 17.4375 12.3217 17.4157L12.4774 16.9873H12.9596L13.1153 17.4157C13.1229 17.4375 13.1348 17.4575 13.1502 17.4746C13.1656 17.4917 13.1841 17.5056 13.2049 17.5154C13.2256 17.5252 13.248 17.5308 13.2709 17.5318C13.2938 17.5328 13.3166 17.5292 13.3381 17.5213C13.3596 17.5133 13.3793 17.5012 13.3961 17.4855C13.4129 17.4698 13.4265 17.4509 13.436 17.4299C13.4455 17.4089 13.4508 17.3862 13.4516 17.3631C13.4524 17.3401 13.4486 17.317 13.4405 17.2954L13.4406 17.2954ZM15.0641 15.8278C15.0642 15.7884 15.051 15.7501 15.0267 15.7191C15.0025 15.6882 14.9686 15.6665 14.9305 15.6575C14.8924 15.6484 14.8525 15.6527 14.8171 15.6695C14.7817 15.6863 14.753 15.7147 14.7356 15.75L14.3313 16.5712L13.9272 15.7501C13.9099 15.7148 13.8812 15.6864 13.8458 15.6696C13.8104 15.6528 13.7705 15.6486 13.7324 15.6576C13.6943 15.6666 13.6604 15.6883 13.6362 15.7193C13.6119 15.7502 13.5987 15.7885 13.5987 15.8279V17.367C13.5985 17.3901 13.6028 17.413 13.6114 17.4345C13.6199 17.4559 13.6327 17.4754 13.6488 17.4919C13.6649 17.5083 13.6841 17.5214 13.7052 17.5303C13.7264 17.5392 13.7491 17.5438 13.772 17.5438C13.795 17.5438 13.8177 17.5392 13.8388 17.5303C13.86 17.5214 13.8792 17.5083 13.8953 17.4919C13.9114 17.4754 13.9241 17.4559 13.9327 17.4345C13.9413 17.413 13.9456 17.3901 13.9453 17.367V16.5727L14.1764 17.0418C14.1907 17.071 14.2128 17.0955 14.2402 17.1126C14.2676 17.1298 14.2992 17.1389 14.3314 17.1389C14.3637 17.1389 14.3953 17.1298 14.4227 17.1126C14.4501 17.0955 14.4722 17.071 14.4865 17.0418L14.7176 16.5727V17.367C14.7176 17.4133 14.7358 17.4578 14.7683 17.4906C14.8008 17.5234 14.8449 17.5418 14.8909 17.5418C14.9368 17.5418 14.9809 17.5234 15.0134 17.4906C15.0459 17.4578 15.0641 17.4133 15.0641 17.367V15.8278ZM12.6047 16.6377H12.8325L12.7186 16.3241L12.6047 16.6377ZM17.1049 17.686L17.9084 17.2179L17.1049 16.7497V17.686ZM19.8111 11.7654L17.1681 16.3828L17.5301 16.5939L20.1723 11.9761L19.8111 11.7654ZM17.8301 16.7686L18.1915 16.9792L20.8342 12.3619L20.4726 12.1508L17.8301 16.7686ZM20.7046 11.3958C20.5951 11.3321 20.4682 11.3056 20.3427 11.32C20.2171 11.3344 20.0993 11.389 20.0068 11.4758L20.985 12.046C21.0133 11.9216 21.0013 11.7914 20.9509 11.6744C20.9004 11.5573 20.8141 11.4597 20.7046 11.3958ZM17.062 9.8472V11.2477H18.4503L17.062 9.8472ZM18.405 17.3054L18.6953 16.7983V19.2525H10.8214V18.1636H15.6386C15.6845 18.1636 15.7286 18.1452 15.7611 18.1124C15.7936 18.0796 15.8118 18.0352 15.8118 17.9888V15.1947C15.8118 15.1483 15.7936 15.1038 15.7611 15.0711C15.7286 15.0383 15.6845 15.0199 15.6386 15.0199H10.8214V9.6001H16.7156V11.4223C16.7156 11.4686 16.7339 11.5131 16.7664 11.5459C16.7988 11.5787 16.8429 11.5971 16.8889 11.5971H18.6954V13.0159L16.7817 16.3593C16.7664 16.3859 16.7584 16.416 16.7582 16.4466V17.9887C16.7582 18.0193 16.7662 18.0495 16.7813 18.0761C16.7965 18.1027 16.8184 18.1248 16.8448 18.1401C16.8711 18.1555 16.901 18.1635 16.9314 18.1635C16.9619 18.1635 16.9917 18.1554 17.0181 18.14L18.3414 17.3695C18.3678 17.354 18.3897 17.3319 18.405 17.3054L18.405 17.3054ZM11.4419 10.544C11.442 10.5903 11.4602 10.6348 11.4927 10.6675C11.5252 10.7003 11.5693 10.7187 11.6152 10.7188H13.7889C13.8349 10.7188 13.8789 10.7004 13.9114 10.6676C13.9439 10.6348 13.9622 10.5903 13.9622 10.544C13.9622 10.4976 13.9439 10.4531 13.9114 10.4203C13.8789 10.3875 13.8349 10.3691 13.7889 10.3691H11.6152C11.5693 10.3692 11.5252 10.3876 11.4927 10.4204C11.4602 10.4532 11.442 10.4976 11.4419 10.544ZM11.4419 11.5853C11.442 11.6317 11.4602 11.6761 11.4927 11.7089C11.5252 11.7417 11.5693 11.7601 11.6152 11.7602H15.6386C15.6615 11.7604 15.6842 11.7561 15.7054 11.7474C15.7267 11.7388 15.746 11.726 15.7623 11.7097C15.7786 11.6935 15.7915 11.6741 15.8004 11.6528C15.8092 11.6315 15.8137 11.6086 15.8137 11.5855C15.8137 11.5624 15.8092 11.5395 15.8004 11.5181C15.7915 11.4968 15.7786 11.4775 15.7623 11.4612C15.746 11.445 15.7267 11.4321 15.7054 11.4235C15.6842 11.4148 15.6615 11.4105 15.6386 11.4108H11.6152C11.5925 11.4107 11.5699 11.4152 11.5489 11.424C11.5279 11.4328 11.5088 11.4456 11.4927 11.4618C11.4766 11.478 11.4638 11.4973 11.4551 11.5185C11.4464 11.5397 11.4419 11.5624 11.4419 11.5853ZM11.4419 12.6262C11.4419 12.6492 11.4464 12.6719 11.4551 12.6931C11.4638 12.7143 11.4766 12.7335 11.4927 12.7497C11.5088 12.7659 11.5279 12.7788 11.5489 12.7876C11.5699 12.7963 11.5925 12.8008 11.6152 12.8008H15.6386C15.6615 12.8011 15.6842 12.7967 15.7054 12.7881C15.7267 12.7794 15.746 12.7666 15.7623 12.7503C15.7786 12.7341 15.7915 12.7147 15.8004 12.6934C15.8092 12.6721 15.8137 12.6492 15.8137 12.6261C15.8137 12.603 15.8092 12.5801 15.8004 12.5588C15.7915 12.5374 15.7786 12.5181 15.7623 12.5018C15.746 12.4856 15.7267 12.4728 15.7054 12.4641C15.6842 12.4555 15.6615 12.4511 15.6386 12.4514H11.6152C11.5693 12.4514 11.5252 12.4699 11.4927 12.5027C11.4602 12.5355 11.4419 12.5799 11.4419 12.6263V12.6262ZM16.8888 13.8424C16.9117 13.8427 16.9344 13.8384 16.9557 13.8297C16.977 13.821 16.9963 13.8082 17.0126 13.7919C17.0289 13.7757 17.0419 13.7563 17.0507 13.735C17.0595 13.7136 17.0641 13.6907 17.0641 13.6676C17.0641 13.6445 17.0595 13.6216 17.0507 13.6002C17.0419 13.5789 17.0289 13.5595 17.0126 13.5433C16.9963 13.527 16.977 13.5142 16.9557 13.5055C16.9344 13.4968 16.9117 13.4925 16.8888 13.4928H11.6152C11.5923 13.4925 11.5695 13.4968 11.5483 13.5055C11.527 13.5142 11.5077 13.527 11.4914 13.5433C11.4751 13.5595 11.4621 13.5789 11.4533 13.6002C11.4445 13.6216 11.4399 13.6445 11.4399 13.6676C11.4399 13.6907 11.4445 13.7136 11.4533 13.735C11.4621 13.7563 11.4751 13.7757 11.4914 13.7919C11.5077 13.8082 11.527 13.821 11.5483 13.8297C11.5695 13.8384 11.5923 13.8427 11.6152 13.8424H16.8888Z" fill="#EAB300"/>
</svg>
