<svg width="30" height="30" viewBox="0 0 30 30" fill="none" xmlns="http://www.w3.org/2000/svg">
<rect x="0.5" y="0.5" width="29" height="29" rx="2.5" stroke="#F2F2F2"/>
<path d="M20.1007 17.6204C19.6948 17.2847 19.3686 16.8662 19.1451 16.394C18.9215 15.9219 18.8058 15.4076 18.8063 14.887V13.4001C18.8063 11.5233 17.384 9.9697 15.5416 9.70943V9.13343C15.5416 8.99198 15.4843 8.85633 15.3823 8.75631C15.2802 8.65629 15.1418 8.6001 14.9975 8.6001C14.8532 8.6001 14.7148 8.65629 14.6128 8.75631C14.5107 8.85633 14.4534 8.99198 14.4534 9.13343V9.70943C12.6105 9.9697 11.1888 11.5233 11.1888 13.4001V14.887C11.189 15.4086 11.0728 15.9239 10.8483 16.3968C10.6239 16.8698 10.2966 17.2888 9.88946 17.6246C9.74231 17.749 9.63743 17.9144 9.58886 18.0988C9.5403 18.2832 9.55036 18.4777 9.61771 18.6563C9.68506 18.8349 9.80648 18.9891 9.96571 19.0982C10.1249 19.2073 10.3144 19.2661 10.5086 19.2668H19.4864C20.0115 19.2668 20.4386 18.8481 20.4386 18.3334C20.4386 18.0604 20.3173 17.8022 20.1007 17.6204ZM14.9975 21.4001C15.4676 21.3995 15.9232 21.24 16.2873 20.9485C16.6515 20.6571 16.902 20.2515 16.9966 19.8001H12.9985C13.0931 20.2515 13.3436 20.6571 13.7077 20.9485C14.0719 21.24 14.5274 21.3995 14.9975 21.4001Z" fill="black"/>
</svg>
