<svg width="12" height="12" viewBox="0 0 12 12" fill="none" xmlns="http://www.w3.org/2000/svg">
<path fill-rule="evenodd" clip-rule="evenodd" d="M5.3602 5.3602H1.8402C1.67046 5.3602 1.50767 5.42762 1.38765 5.54765C1.26762 5.66767 1.2002 5.83046 1.2002 6.0002C1.2002 6.16993 1.26762 6.33272 1.38765 6.45274C1.50767 6.57277 1.67046 6.6402 1.8402 6.6402H5.3602V10.1602C5.3602 10.3299 5.42762 10.4927 5.54765 10.6127C5.66767 10.7328 5.83046 10.8002 6.0002 10.8002C6.16993 10.8002 6.33272 10.7328 6.45274 10.6127C6.57277 10.4927 6.6402 10.3299 6.6402 10.1602V6.6402H10.1602C10.3299 6.6402 10.4927 6.57277 10.6127 6.45274C10.7328 6.33272 10.8002 6.16993 10.8002 6.0002C10.8002 5.83046 10.7328 5.66767 10.6127 5.54765C10.4927 5.42762 10.3299 5.3602 10.1602 5.3602H6.6402V1.8402C6.6402 1.67046 6.57277 1.50767 6.45274 1.38765C6.33272 1.26762 6.16993 1.2002 6.0002 1.2002C5.83046 1.2002 5.66767 1.26762 5.54765 1.38765C5.42762 1.50767 5.3602 1.67046 5.3602 1.8402V5.3602Z" fill="white"/>
</svg>
