<svg width="31" height="30" viewBox="0 0 31 30" fill="none" xmlns="http://www.w3.org/2000/svg">
<rect x="0.164062" width="30" height="30" rx="15" fill="#A13967"/>
<path fill-rule="evenodd" clip-rule="evenodd" d="M11.0284 10.5863H11.5307V19.0635C11.5307 19.4365 11.8298 19.7401 12.1974 19.7401H18.4746V20.2499C18.4746 20.4427 18.3198 20.5999 18.1298 20.5999H11.0284C10.8385 20.5999 10.6836 20.4427 10.6836 20.2499V10.9363C10.6836 10.7436 10.8385 10.5863 11.0284 10.5863ZM12.1974 9.3999C12.0074 9.3999 11.8525 9.55712 11.8525 9.7499V19.0635C11.8525 19.2563 12.0074 19.4135 12.1974 19.4135H19.2988C19.4887 19.4135 19.6436 19.2563 19.6436 19.0635V11.3548H18.3842C18.0167 11.3548 17.7176 11.0512 17.7176 10.6781V9.3999H12.1974ZM18.3842 11.0281H19.6137C19.597 10.991 19.5732 10.9567 19.5426 10.9256L18.1404 9.50243C18.1097 9.4713 18.076 9.44722 18.0394 9.43026V10.6781C18.0394 10.8709 18.1943 11.0281 18.3842 11.0281ZM13.1618 11.6125H16.1274C16.1701 11.6125 16.211 11.5953 16.2412 11.5646C16.2714 11.534 16.2883 11.4925 16.2883 11.4492C16.2883 11.4058 16.2714 11.3643 16.2412 11.3337C16.211 11.303 16.1701 11.2858 16.1274 11.2858H13.1618C13.1191 11.2858 13.0782 11.303 13.048 11.3337C13.0178 11.3643 13.0009 11.4058 13.0009 11.4492C13.0009 11.4925 13.0178 11.534 13.048 11.5646C13.0782 11.5953 13.1191 11.6125 13.1618 11.6125ZM13.1618 12.4H14.8515C14.8942 12.4 14.9351 12.3828 14.9653 12.3522C14.9955 12.3215 15.0124 12.28 15.0124 12.2367C15.0124 12.1934 14.9955 12.1518 14.9653 12.1212C14.9351 12.0906 14.8942 12.0733 14.8515 12.0733H13.1618C13.1191 12.0733 13.0782 12.0906 13.048 12.1212C13.0178 12.1518 13.0009 12.1934 13.0009 12.2367C13.0009 12.28 13.0178 12.3215 13.048 12.3522C13.0782 12.3828 13.1191 12.4 13.1618 12.4ZM17.1989 12.7586L17.2896 12.7781L13.4944 15.0021C13.4578 15.0237 13.4311 15.0592 13.4202 15.1007C13.4092 15.1422 13.4149 15.1865 13.4361 15.2237C13.4572 15.261 13.4919 15.2883 13.5328 15.2996C13.5737 15.3109 13.6173 15.3054 13.6541 15.2841L17.4499 13.0598L17.4212 13.1493C17.4089 13.1902 17.4129 13.2344 17.4323 13.2723C17.4517 13.3102 17.4851 13.3389 17.5251 13.3521C17.5652 13.3653 17.6087 13.362 17.6464 13.343C17.6841 13.3239 17.713 13.2906 17.7267 13.2502L17.8837 12.7607C17.8912 12.7388 17.8941 12.7156 17.8921 12.6925C17.8902 12.6694 17.8833 12.647 17.8722 12.6268C17.861 12.6066 17.8457 12.589 17.8272 12.5753C17.8088 12.5615 17.7878 12.552 17.7654 12.5471L17.2656 12.4396C17.2239 12.4307 17.1804 12.4389 17.1447 12.4624C17.109 12.486 17.084 12.523 17.0751 12.5653C17.0707 12.5863 17.0705 12.6079 17.0743 12.6289C17.0782 12.65 17.0861 12.6701 17.0976 12.688C17.1091 12.706 17.1239 12.7214 17.1413 12.7336C17.1587 12.7457 17.1783 12.7542 17.1989 12.7586ZM14.0846 17.6858V16.4455L13.4053 16.4455C13.405 16.4457 13.4048 16.4459 13.4047 16.4462L13.4046 17.6851C13.4048 17.6854 13.4051 17.6856 13.4054 17.6858L14.0846 17.6858ZM17.4116 17.6858L18.0908 17.6859C18.0911 17.6857 18.0913 17.6854 18.0915 17.6851L18.0915 13.9462C18.0913 13.9459 18.0911 13.9457 18.0908 13.9456L17.4123 13.9455C17.412 13.9457 17.4117 13.946 17.4116 13.9463V17.6858H17.4116ZM16.4098 17.6858H17.0897V14.5407L16.4105 14.5407C16.4102 14.5409 16.41 14.5411 16.4098 14.5414V17.6858ZM15.4081 17.6858H16.088V15.1359L15.4087 15.1358C15.4085 15.136 15.4082 15.1363 15.4081 15.1366L15.4081 17.6858ZM14.4064 17.6858H15.0863V15.8798H14.4071C14.4068 15.88 14.4065 15.8802 14.4064 15.8805V17.6858Z" fill="white"/>
</svg>
