<svg width="30" height="30" viewBox="0 0 30 30" fill="none" xmlns="http://www.w3.org/2000/svg">
<rect x="0.5" y="0.5" width="29" height="29" rx="2.5" stroke="#F2F2F2"/>
<path d="M21.207 20.2589L18.0516 17.0904C18.8632 16.1608 19.308 14.9839 19.3074 13.7681C19.3074 10.9185 16.906 8.6001 13.9545 8.6001C11.0029 8.6001 8.60156 10.9185 8.60156 13.7681C8.60156 16.6177 11.0029 18.9361 13.9545 18.9361C15.0625 18.9361 16.1185 18.6134 17.0212 18.0009L20.2006 21.1934C20.3335 21.3266 20.5123 21.4001 20.7038 21.4001C20.8851 21.4001 21.0571 21.3334 21.1877 21.212C21.3209 21.088 21.3978 20.918 21.4014 20.7393C21.405 20.5606 21.3351 20.3878 21.207 20.2589ZM13.9545 9.94827C16.1361 9.94827 17.911 11.6618 17.911 13.7681C17.911 15.8744 16.1361 17.5879 13.9545 17.5879C11.7728 17.5879 9.99798 15.8744 9.99798 13.7681C9.99798 11.6618 11.7728 9.94827 13.9545 9.94827Z" fill="black"/>
</svg>
