<svg width="26" height="26" viewBox="0 0 26 26" fill="none" xmlns="http://www.w3.org/2000/svg">
<rect width="26" height="26" rx="3" fill="#063F6C"/>
<path d="M8.80219 9.3999H17.1982C17.5301 9.3999 17.8002 9.67025 17.8002 10.0026C17.8002 10.3349 17.5301 10.6052 17.1982 10.6052H8.80219C8.47025 10.6071 8.2002 10.3367 8.2002 10.0026C8.2002 9.67025 8.47025 9.3999 8.80219 9.3999ZM10.3212 12.3982H15.6792C16.0111 12.3982 16.2811 12.6685 16.2811 13.0008C16.2811 13.3331 16.0111 13.6035 15.6792 13.6035H10.3212C9.98929 13.6035 9.71924 13.3331 9.71924 13.0008C9.71924 12.6685 9.98929 12.3982 10.3212 12.3982ZM11.8403 15.3946H14.1601C14.492 15.3946 14.7621 15.6649 14.7621 15.9972C14.7621 16.3296 14.492 16.5999 14.1601 16.5999H11.8403C11.5083 16.5999 11.2383 16.3296 11.2383 15.9972C11.2383 15.6649 11.5083 15.3946 11.8403 15.3946Z" fill="white"/>
</svg>
