<svg width="40" height="40" viewBox="0 0 40 40" fill="none" xmlns="http://www.w3.org/2000/svg">
<rect width="40" height="40" rx="4" fill="#FFEFF0"/>
<path d="M13.6 12C13.3878 12 13.1843 12.0843 13.0343 12.2343C12.8843 12.3843 12.8 12.5878 12.8 12.8V22.6667H12.2667C12.1959 22.6667 12.1281 22.6948 12.0781 22.7448C12.0281 22.7948 12 22.8626 12 22.9333C12 23.0041 12.0281 23.0719 12.0781 23.1219C12.1281 23.1719 12.1959 23.2 12.2667 23.2H14.4C14.4 21.9747 15.1515 20.9248 16.2187 20.4859C15.8223 20.243 15.5162 19.8773 15.3467 19.4444C15.1773 19.0116 15.1539 18.5352 15.2801 18.0878C15.4063 17.6404 15.6751 17.2465 16.0457 16.966C16.4164 16.6854 16.8685 16.5336 17.3333 16.5336C17.7982 16.5336 18.2503 16.6854 18.6209 16.966C18.9915 17.2465 19.2604 17.6404 19.3866 18.0878C19.5127 18.5352 19.4893 19.0116 19.3199 19.4444C19.1505 19.8773 18.8443 20.243 18.448 20.4859C18.8424 20.6483 19.1967 20.8946 19.4864 21.2077L21.0229 20.5789C21.2972 20.4662 21.5993 20.4396 21.8891 20.5027L24.0963 16.4197C24.1457 16.3263 24.2131 16.2436 24.2946 16.1763C24.3761 16.1091 24.4702 16.0587 24.5713 16.028C24.6725 15.9974 24.7787 15.987 24.8838 15.9976C24.989 16.0082 25.091 16.0396 25.184 16.0898C25.2769 16.1401 25.359 16.2083 25.4255 16.2904C25.492 16.3726 25.5415 16.4671 25.5712 16.5685C25.601 16.6699 25.6103 16.7762 25.5987 16.8813C25.5871 16.9863 25.5548 17.088 25.5037 17.1805L23.0336 21.7504C23.0698 22.035 23.0218 22.324 22.8955 22.5816C22.7693 22.8392 22.5703 23.0542 22.3232 23.2H27.7333C27.8041 23.2 27.8719 23.1719 27.9219 23.1219C27.9719 23.0719 28 23.0041 28 22.9333C28 22.8626 27.9719 22.7948 27.9219 22.7448C27.8719 22.6948 27.8041 22.6667 27.7333 22.6667H27.2V12.8C27.2 12.5878 27.1157 12.3843 26.9657 12.2343C26.8157 12.0843 26.6122 12 26.4 12H13.6Z" fill="#DC2626"/>
<path d="M24.9269 16.5652C24.9577 16.5818 24.985 16.6044 25.0071 16.6315C25.0292 16.6587 25.0457 16.69 25.0558 16.7235C25.0658 16.7571 25.0691 16.7923 25.0655 16.8271C25.062 16.8619 25.0516 16.8957 25.0349 16.9265L22.4723 21.6671C22.5391 21.8892 22.5209 22.1283 22.4211 22.3378C22.3212 22.5472 22.147 22.7119 21.9323 22.7999L19.7336 23.6999V27.7332C19.7336 27.8039 19.7055 27.8718 19.6555 27.9218C19.6055 27.9718 19.5377 27.9999 19.4669 27.9999H15.2003C15.1295 27.9999 15.0617 27.9718 15.0117 27.9218C14.9617 27.8718 14.9336 27.8039 14.9336 27.7332V23.1999C14.9335 22.6864 15.0981 22.1864 15.4032 21.7734C15.7083 21.3604 16.1378 21.0561 16.6287 20.9053C17.1195 20.7545 17.6458 20.7651 18.1301 20.9355C18.6145 21.1059 19.0315 21.4272 19.3197 21.8521L21.2251 21.0724C21.3725 21.012 21.5329 20.9903 21.691 21.0094C21.8492 21.0286 21.9998 21.0879 22.1285 21.1817L24.5659 16.6732C24.5825 16.6424 24.605 16.6152 24.6322 16.593C24.6594 16.5709 24.6906 16.5544 24.7242 16.5444C24.7577 16.5343 24.7929 16.531 24.8277 16.5346C24.8626 16.5382 24.8964 16.5486 24.9272 16.5652H24.9269Z" fill="#DC2626"/>
<path d="M17.3344 17.0669C16.91 17.0669 16.5031 17.2355 16.203 17.5355C15.9029 17.8356 15.7344 18.2425 15.7344 18.6669C15.7344 19.0912 15.9029 19.4982 16.203 19.7983C16.5031 20.0983 16.91 20.2669 17.3344 20.2669C17.7587 20.2669 18.1657 20.0983 18.4657 19.7983C18.7658 19.4982 18.9344 19.0912 18.9344 18.6669C18.9344 18.2425 18.7658 17.8356 18.4657 17.5355C18.1657 17.2355 17.7587 17.0669 17.3344 17.0669Z" fill="#DC2626"/>
</svg>
