<svg width="40" height="40" viewBox="0 0 40 40" fill="none" xmlns="http://www.w3.org/2000/svg">
<rect width="40" height="40" rx="4" fill="#FFF9E6"/>
<path d="M16.2667 15.4667V14.4C16.2667 14.3293 16.2386 14.2614 16.1886 14.2114C16.1386 14.1614 16.0707 14.1333 16 14.1333H12.2667C12.1959 14.1333 12.1281 14.1614 12.0781 14.2114C12.0281 14.2614 12 14.3293 12 14.4V15.4667H16.2667ZM12 16V24.8H16.2667V16H12ZM15.2 19.4667H13.0667C12.9959 19.4667 12.9281 19.4386 12.8781 19.3886C12.8281 19.3386 12.8 19.2707 12.8 19.2V17.0667C12.8 16.9959 12.8281 16.9281 12.8781 16.8781C12.9281 16.8281 12.9959 16.8 13.0667 16.8H15.2C15.2707 16.8 15.3386 16.8281 15.3886 16.8781C15.4386 16.9281 15.4667 16.9959 15.4667 17.0667V19.2C15.4667 19.2707 15.4386 19.3386 15.3886 19.3886C15.3386 19.4386 15.2707 19.4667 15.2 19.4667ZM12 26.4V27.7333C12 27.8041 12.0281 27.8719 12.0781 27.9219C12.1281 27.9719 12.1959 28 12.2667 28H16C16.0707 28 16.1386 27.9719 16.1886 27.9219C16.2386 27.8719 16.2667 27.8041 16.2667 27.7333V26.4H12ZM12 25.3333H16.2667V25.8667H12V25.3333ZM16.8 25.3333H20.2667V25.8667H16.8V25.3333ZM20.2667 13.0667V12.2667C20.2667 12.1959 20.2386 12.1281 20.1886 12.0781C20.1386 12.0281 20.0707 12 20 12H17.0667C16.9959 12 16.9281 12.0281 16.8781 12.0781C16.8281 12.1281 16.8 12.1959 16.8 12.2667V13.0667H20.2667ZM16.8 14.9333H20.2667V24.8H16.8V14.9333ZM16.8 26.4V27.7333C16.8 27.8041 16.8281 27.8719 16.8781 27.9219C16.9281 27.9719 16.9959 28 17.0667 28H20C20.0707 28 20.1386 27.9719 20.1886 27.9219C20.2386 27.8719 20.2667 27.8041 20.2667 27.7333V26.4H16.8ZM16.8 13.6H20.2667V14.4H16.8V13.6ZM20.7936 17.5221L20.9363 18.0699L25.4525 16.8656L25.3096 16.3178L20.7936 17.5221ZM23.0221 26.0649L27.5381 24.8605L27.2522 23.7643L22.7359 24.9686L23.0221 26.0649ZM27.1176 23.2483L25.5872 17.3816L21.071 18.5859L22.6013 24.4526L27.1176 23.2483Z" fill="#F59E0B"/>
<path d="M20.6583 17.0059L25.1742 15.8018L24.7914 14.3331C24.7724 14.2647 24.7275 14.2065 24.6663 14.1706C24.6051 14.1348 24.5323 14.1242 24.4634 14.1412L20.4634 15.2079C20.3955 15.2265 20.3376 15.271 20.3021 15.3318C20.2667 15.3926 20.2566 15.4649 20.2739 15.5331L20.6583 17.0059ZM27.6721 25.3763L23.1558 26.5807L23.4739 27.7998C23.483 27.8339 23.4988 27.8658 23.5203 27.8937C23.5419 27.9216 23.5687 27.9451 23.5993 27.9626C23.6395 27.9869 23.6856 27.9998 23.7326 27.9998C23.756 27.9998 23.7792 27.9971 23.8019 27.9919L27.8019 26.9252C27.8698 26.9066 27.9277 26.8621 27.9631 26.8012C27.9986 26.7404 28.0087 26.6681 27.9914 26.5998L27.6721 25.3763Z" fill="#F59E0B"/>
</svg>
