<svg width="40" height="40" viewBox="0 0 40 40" fill="none" xmlns="http://www.w3.org/2000/svg">
<rect width="40" height="40" rx="4" fill="#E6F3FF"/>
<path d="M27.7164 17.1209L20.203 14.0364C20.1452 14.0124 20.083 14 20.0201 14C19.9572 14 19.8949 14.0124 19.8371 14.0364L12.2865 17.1098C12.2016 17.1462 12.1292 17.2057 12.0784 17.2812C12.0275 17.3567 12.0003 17.4449 12 17.5351C11.9997 17.6253 12.0263 17.7136 12.0767 17.7894C12.127 17.8652 12.1989 17.9252 12.2837 17.9621C12.73 18.1479 15.3422 19.212 15.7087 19.367L19.8371 21.0577C19.9548 21.1033 20.0861 21.1023 20.203 21.055C21.5296 20.5114 24.9529 19.106 26.2269 18.5813C26.224 18.925 26.2292 21.8229 26.2269 22.2432C25.6591 22.3823 25.4284 23.3224 25.7466 23.8313L25.3263 25.6636C25.313 25.7186 25.3177 25.7763 25.3397 25.8285C25.3617 25.8808 25.4 25.9251 25.4493 25.9552C25.4981 25.9862 25.5557 26.0018 25.614 25.9998C25.6724 25.9978 25.7287 25.9784 25.7752 25.9441C25.9784 25.7983 26.223 25.7168 26.4756 25.7108C26.7444 25.707 27.0069 25.79 27.2218 25.9468C27.2702 25.98 27.3279 25.9979 27.3871 25.9982C27.4463 25.9985 27.5041 25.9811 27.5528 25.9483C27.6015 25.9156 27.6386 25.8692 27.6592 25.8153C27.6798 25.7614 27.6828 25.7026 27.6678 25.647L27.1332 23.8229C27.4082 23.3649 27.2587 22.5422 26.7987 22.3126C26.8013 21.8887 26.797 18.6818 26.7987 18.3481L27.7164 17.9705C27.8009 17.9338 27.8726 17.8742 27.9229 17.7988C27.9732 17.7234 28 17.6355 28 17.5457C28 17.4559 27.9732 17.368 27.9229 17.2926C27.8726 17.2172 27.8009 17.1576 27.7164 17.1209Z" fill="#1D4ED8"/>
<path d="M19.6139 21.5689C19.2697 21.4278 15.3489 19.8187 15.1367 19.7337V22.4379C15.1387 22.583 15.1769 22.7256 15.2481 22.8533C15.3193 22.9809 15.4214 23.0899 15.5456 23.1708C16.8025 24.0006 18.2776 24.464 19.7969 24.5062C21.4616 24.5383 23.0967 24.0753 24.4827 23.1791C24.61 23.0978 24.7148 22.9875 24.7881 22.8578C24.8613 22.7281 24.9008 22.583 24.903 22.4351V19.731C24.7046 19.8145 20.7623 21.4306 20.4258 21.5689C20.1658 21.6729 19.8739 21.6729 19.6139 21.5689Z" fill="#1D4ED8"/>
</svg>
