<svg width="40" height="40" viewBox="0 0 40 40" fill="none" xmlns="http://www.w3.org/2000/svg">
<rect width="40" height="40" rx="4" fill="#E9FDF0"/>
<path d="M21.6553 15.5345C22.3951 16.003 22.9139 16.7958 23.0083 17.716C23.3185 17.8634 23.6571 17.94 23.9999 17.9403C25.296 17.9403 26.3465 16.8793 26.3465 15.5704C26.3465 14.2612 25.296 13.2002 23.9999 13.2002C22.7162 13.2006 21.6749 14.2427 21.6553 15.5345ZM20.118 20.3873C21.4141 20.3873 22.4646 19.3261 22.4646 18.0172C22.4646 16.7082 21.4139 15.6472 20.118 15.6472C18.8221 15.6472 17.771 16.7084 17.771 18.0174C17.771 19.3263 18.8221 20.3873 20.118 20.3873ZM21.1134 20.5489H19.1222C17.4655 20.5489 16.1177 21.9104 16.1177 23.5838V26.0433L16.1239 26.0818L16.2916 26.1348C17.8727 26.6338 19.2462 26.8002 20.3768 26.8002C22.585 26.8002 23.8649 26.1643 23.9438 26.1238L24.1005 26.0437H24.1173V23.5838C24.1179 21.9104 22.7701 20.5489 21.1134 20.5489ZM24.9957 18.1021H23.0199C22.9998 18.8726 22.679 19.604 22.1273 20.1366C23.6 20.5789 24.6774 21.9582 24.6774 23.5874V24.3453C26.6282 24.2731 27.7524 23.7147 27.8265 23.6772L27.9832 23.5969H28V21.1366C28 19.4634 26.6522 18.1021 24.9957 18.1021ZM16.0005 17.9407C16.4596 17.9407 16.8867 17.8054 17.2485 17.5749C17.362 16.8332 17.7527 16.1637 18.3401 15.7041C18.3425 15.6597 18.3467 15.6157 18.3467 15.571C18.3467 14.2618 17.296 13.2008 16.0005 13.2008C14.7042 13.2008 13.6539 14.2618 13.6539 15.571C13.6539 16.8795 14.7042 17.9407 16.0005 17.9407ZM18.1079 20.1366C17.5593 19.6065 17.2389 18.8799 17.2159 18.1134C17.1426 18.1079 17.0702 18.1021 16.9955 18.1021H15.0045C13.3478 18.1021 12 19.4634 12 21.1366V23.5965L12.0062 23.6344L12.1739 23.6878C13.4423 24.0878 14.5742 24.2721 15.5574 24.3302V23.5874C15.5578 21.9582 16.6349 20.5793 18.1079 20.1366Z" fill="#16A34A"/>
</svg>
