<svg width="14" height="14" viewBox="0 0 14 14" fill="none" xmlns="http://www.w3.org/2000/svg">
<path d="M10.1517 11.1998H7.74874V8.69702H8.54285C8.74424 8.69702 8.86324 8.46114 8.74424 8.2913L7.19949 6.08809C7.10109 5.94656 6.89741 5.94656 6.799 6.08809L5.25425 8.2913C5.13525 8.46114 5.25196 8.69702 5.45564 8.69702H6.24976V11.1998H3.55846C2.35699 11.1314 1.40039 9.97318 1.40039 8.71825C1.40039 7.85254 1.85581 7.0977 2.53092 6.68961C2.46913 6.51741 2.43709 6.33342 2.43709 6.13999C2.43709 5.25541 3.13051 4.54066 3.9887 4.54066C4.17407 4.54066 4.35258 4.57369 4.51964 4.63738C5.01625 3.55229 6.08727 2.7998 7.33223 2.7998C8.94334 2.80216 10.2707 4.0736 10.4217 5.69416C11.6598 5.91354 12.6004 7.09534 12.6004 8.43283C12.6004 9.86231 11.5202 11.1007 10.1517 11.1998Z" fill="#6B7280"/>
</svg>
