<svg width="50" height="50" viewBox="0 0 50 50" fill="none" xmlns="http://www.w3.org/2000/svg">
<path d="M43.419 22.4112C43.012 22.4112 42.6215 22.5733 42.3337 22.8619C42.0458 23.1505 41.8841 23.5419 41.8841 23.95V28.4432L33.6774 20.2159C32.9927 19.5636 32.0842 19.1999 31.1397 19.1999C30.1951 19.1999 29.2866 19.5636 28.6019 20.2159L18.8603 29.9799L17.3049 28.4226C16.6202 27.7703 15.7118 27.4066 14.7672 27.4066C13.8226 27.4066 12.9142 27.7703 12.2295 28.4226L8.11588 32.5445V15.7433C8.11588 12.5078 9.49322 11.127 12.7206 11.127H29.0931C29.5002 11.127 29.8906 10.9649 30.1785 10.6763C30.4663 10.3877 30.628 9.99634 30.628 9.58824C30.628 9.18013 30.4663 8.78874 30.1785 8.50017C29.8906 8.2116 29.5002 8.04948 29.0931 8.04948H12.7206C11.6837 7.92899 10.6331 8.04512 9.64725 8.38917C8.66143 8.73322 7.76596 9.29628 7.02785 10.0362C6.28974 10.7762 5.72808 11.6739 5.38489 12.6622C5.0417 13.6505 4.92586 14.7038 5.04604 15.7433V36.26C4.92586 37.2996 5.0417 38.3528 5.38489 39.3411C5.72808 40.3294 6.28974 41.2271 7.02785 41.9671C7.76596 42.707 8.66143 43.2701 9.64725 43.6142C10.6331 43.9582 11.6837 44.0743 12.7206 43.9538H37.2794C38.3163 44.0743 39.3669 43.9582 40.3528 43.6142C41.3386 43.2701 42.234 42.707 42.9721 41.9671C43.7103 41.2271 44.2719 40.3294 44.6151 39.3411C44.9583 38.3528 45.0741 37.2996 44.954 36.26V23.95C44.954 23.5419 44.7922 23.1505 44.5044 22.8619C44.2165 22.5733 43.8261 22.4112 43.419 22.4112ZM37.2794 40.8763H12.7206C9.70811 40.8763 8.32463 39.6453 8.15067 36.8612L14.3988 30.5974C14.4398 30.5373 14.4947 30.4882 14.5589 30.4542C14.6231 30.4202 14.6946 30.4025 14.7672 30.4025C14.8398 30.4025 14.9113 30.4202 14.9755 30.4542C15.0397 30.4882 15.0946 30.5373 15.1356 30.5974L17.0573 32.526C17.5444 32.9874 18.1891 33.2445 18.8593 33.2445C19.5295 33.2445 20.1742 32.9874 20.6613 32.526L30.7713 22.3907C30.8122 22.3306 30.8672 22.2815 30.9314 22.2475C30.9956 22.2135 31.0671 22.1958 31.1397 22.1958C31.2123 22.1958 31.2838 22.2135 31.348 22.2475C31.4122 22.2815 31.4671 22.3306 31.5081 22.3907L41.8841 32.7948V36.26C41.8841 39.4955 40.5068 40.8763 37.2794 40.8763ZM36.1947 11.7015C36.0521 11.5587 35.939 11.3892 35.8618 11.2027C35.7847 11.0161 35.7449 10.8161 35.7449 10.6141C35.7449 10.4121 35.7847 10.2121 35.8618 10.0255C35.939 9.83891 36.0521 9.66941 36.1947 9.52669L39.2645 6.44917C39.5526 6.16151 39.9426 6 40.3492 6C40.7558 6 41.1458 6.16151 41.4339 6.44917L44.5037 9.52669C44.6545 9.66756 44.7755 9.83744 44.8594 10.0262C44.9433 10.2149 44.9884 10.4187 44.992 10.6253C44.9956 10.8319 44.9577 11.0372 44.8805 11.2288C44.8033 11.4204 44.6884 11.5944 44.5427 11.7405C44.3969 11.8866 44.2233 12.0018 44.0322 12.0792C43.8411 12.1566 43.6363 12.1946 43.4302 12.191C43.2242 12.1873 43.0209 12.1421 42.8326 12.058C42.6443 11.9739 42.4749 11.8526 42.3344 11.7015L41.8841 11.2521V15.7433C41.8841 16.1514 41.7224 16.5428 41.4346 16.8313C41.1467 17.1199 40.7563 17.282 40.3492 17.282C39.9421 17.282 39.5517 17.1199 39.2638 16.8313C38.976 16.5428 38.8143 16.1514 38.8143 15.7433V11.2521L38.364 11.7015C38.2217 11.8444 38.0526 11.9578 37.8665 12.0351C37.6804 12.1125 37.4808 12.1523 37.2794 12.1523C37.0779 12.1523 36.8784 12.1125 36.6922 12.0351C36.5061 11.9578 36.337 11.8444 36.1947 11.7015ZM16.8138 17.282C17.3197 17.282 17.8143 17.4324 18.235 17.7142C18.6557 17.996 18.9836 18.3966 19.1772 18.8652C19.3709 19.3338 19.4215 19.8495 19.3228 20.347C19.2241 20.8444 18.9805 21.3014 18.6227 21.6601C18.2649 22.0187 17.8091 22.263 17.3128 22.3619C16.8166 22.4609 16.3022 22.4101 15.8348 22.216C15.3673 22.0219 14.9678 21.6932 14.6867 21.2714C14.4056 20.8497 14.2556 20.3539 14.2556 19.8466C14.2556 19.1665 14.5251 18.5141 15.0048 18.0332C15.4846 17.5522 16.1353 17.282 16.8138 17.282Z" fill="black"/>
</svg>
