<svg width="16" height="16" viewBox="0 0 16 16" fill="none" xmlns="http://www.w3.org/2000/svg">
<path d="M8.00036 5.91992C6.86385 5.91992 5.94043 6.85234 5.94043 7.99992C5.94043 9.14751 6.86385 10.0799 8.00036 10.0799C9.13688 10.0799 10.0603 9.14751 10.0603 7.99992C10.0603 6.85234 9.13688 5.91992 8.00036 5.91992ZM7.84409 7.38309C7.58838 7.38309 7.37528 7.59827 7.37528 7.85647H6.69337C6.70758 7.21096 7.21901 6.69454 7.84409 6.69454V7.38309Z" fill="#6B7280"/>
<path d="M14.2504 7.5695C13.5543 6.69446 11.0682 3.83984 7.99961 3.83984C4.93102 3.83984 2.44489 6.69446 1.74878 7.5695C1.54989 7.81336 1.54989 8.17198 1.74878 8.43019C2.44489 9.30522 4.93102 12.1598 7.99961 12.1598C11.0682 12.1598 13.5543 9.30522 14.2504 8.43019C14.4493 8.18633 14.4493 7.82771 14.2504 7.5695ZM7.99961 11.0123C6.35166 11.0123 5.01626 9.66384 5.01626 7.99984C5.01626 6.33584 6.35166 4.98743 7.99961 4.98743C9.64756 4.98743 10.983 6.33584 10.983 7.99984C10.983 9.66384 9.64756 11.0123 7.99961 11.0123Z" fill="#6B7280"/>
</svg>
