<?xml version="1.0" encoding="UTF-8"?>
<!DOCTYPE svg PUBLIC "-//W3C//DTD SVG 1.1//EN" "http://www.w3.org/Graphics/SVG/1.1/DTD/svg11.dtd">
<!-- Creator: CorelDRAW X7 -->
<svg xmlns="http://www.w3.org/2000/svg" xml:space="preserve" width="228.6mm" height="228.6mm" version="1.1" style="shape-rendering:geometricPrecision; text-rendering:geometricPrecision; image-rendering:optimizeQuality; fill-rule:evenodd; clip-rule:evenodd"
viewBox="0 0 22860 22860"
 xmlns:xlink="http://www.w3.org/1999/xlink">
 <defs>
  <style type="text/css">
   <![CDATA[
    .fil1 {fill:#008DD2}
    .fil0 {fill:#063F6C}
   ]]>
  </style>
 </defs>
 <g id="Layer_x0020_1">
  <metadata id="CorelCorpID_0Corel-Layer"/>
  <g id="_997523760">
   <path class="fil0" d="M4856 14328c562,0 910,-285 910,-741 0,-427 -328,-573 -838,-682 -337,-73 -446,-119 -446,-258 0,-112 102,-198 284,-198 212,0 440,82 649,241l288 -404c-242,-201 -540,-311 -920,-311 -520,0 -870,292 -870,728 0,457 360,589 847,699 331,79 436,109 436,244 0,123 -109,209 -320,209 -278,0 -527,-106 -748,-288l-318 381c275,248 642,380 1046,380zm2255 -1003l632 -747 -635 0 -539 675 0 -1278 -563 0 0 2313 563 0 0 -407 172 -198 370 605 636 0 -636 -963zm1467 1003c487,0 896,-410 896,-897 0,-486 -409,-893 -896,-893 -486,0 -895,407 -895,893 0,487 409,897 895,897zm0 -467c-215,0 -396,-198 -396,-430 0,-231 181,-427 396,-427 216,0 397,196 397,427 0,232 -181,430 -397,430zm1951 467c487,0 896,-410 896,-897 0,-486 -409,-893 -896,-893 -486,0 -895,407 -895,893 0,487 409,897 895,897zm0 -467c-215,0 -396,-198 -396,-430 0,-231 181,-427 396,-427 216,0 397,196 397,427 0,232 -181,430 -397,430zm1079 427l562 0 0 -2313 -562 0 0 2313zm7442 -3853c-377,1342 -1399,1348 -2672,1482 439,92 971,112 1517,64 -415,261 -905,412 -1431,412 -276,0 -541,-41 -792,-118 286,-23 552,-73 769,-147 -853,15 -1350,50 -1949,-597 788,140 1620,169 2247,74 -969,-97 -2553,-73 -2861,-1170 723,536 1617,852 2586,852 969,0 1863,-316 2586,-852zm-2860 569c-202,-154 -398,-202 -593,-218l17 129c194,10 382,36 576,89zm-286 -1817c109,0 197,88 197,197 0,108 -88,196 -197,196 -108,0 -196,-88 -196,-196 0,-109 88,-197 196,-197zm-386 1847l-168 -1031c60,-39 250,-11 363,5 -137,-103 -287,-164 -535,-158l177 1018c20,112 64,129 163,166zm621 -360c-201,-153 -398,-202 -592,-217l17 128c193,11 382,37 575,89zm-50 -329c-202,-153 -398,-202 -593,-218l18 129c193,11 381,36 575,89zm2266 96c-163,-123 -360,-179 -574,-200l-15 92c146,39 289,82 383,177l-250 357c70,-15 162,11 244,-111l212 -315zm-948 -712c-374,192 -674,500 -875,959l0 -1521c134,593 666,611 875,562zm-383 -542c-109,0 -197,88 -197,197 0,108 88,196 197,196 108,0 196,-88 196,-196 0,-109 -88,-197 -196,-197z"/>
   <path class="fil1" d="M12487 14288l334 0 0 -1724 1307 1724 335 0 0 -2273 -335 0 0 1724 -1307 -1724 -334 0 0 2273zm3114 -251c-295,0 -503,-205 -546,-490l1347 0c0,-612 -301,-1009 -824,-1009 -473,0 -854,377 -854,890 0,526 404,900 880,900 242,0 540,-103 692,-265l-205 -211c-103,105 -311,185 -490,185zm-10 -1208c295,0 457,192 493,457l-1026 0c53,-278 268,-457 533,-457zm1638 1499c374,0 649,-205 649,-529 0,-341 -302,-434 -583,-517 -288,-89 -394,-129 -394,-261 0,-129 133,-202 302,-202 148,0 321,56 486,159l146 -242c-186,-122 -411,-198 -632,-198 -364,0 -626,205 -623,519 0,278 196,391 589,500 212,60 388,109 388,268 0,132 -133,222 -325,222 -202,0 -397,-76 -579,-209l-155 235c205,166 480,255 731,255zm1658 -347c-37,36 -103,62 -176,62 -95,0 -175,-86 -175,-205l0 -982 404 0 0 -278 -404 0 0 -470 -321 0 0 470 -258 0 0 278 258 0 0 1005c0,275 185,467 450,467 123,0 248,-46 341,-122l-119 -225zm-4314 -3540c163,-123 360,-179 574,-200l15 92c-147,39 -289,82 -384,177l251 357c-70,-15 -162,11 -244,-111l-212 -315zm948 -712c374,192 674,500 874,959l0 -1521c-133,593 -665,611 -874,562zm1217 1275c202,-154 398,-202 593,-218l-17 129c-194,10 -382,36 -576,89zm672 30l168 -1031c-60,-39 -250,-11 -363,5 137,-103 287,-164 535,-158l-178 1018c-19,112 -64,129 -162,166zm-621 -360c201,-153 397,-202 592,-217l-17 128c-194,11 -382,37 -575,89zm50 -329c201,-153 398,-202 593,-218l-18 129c-193,11 -382,36 -575,89zm-375 -1813l63 196 206 0 -167 120 64 196 -166 -121 -166 121 64 -196 -167 -120 206 0 63 -196z"/>
  </g>
 </g>
</svg>
